<svg width="143" height="40" viewBox="0 0 143 40" fill="none" xmlns="http://www.w3.org/2000/svg">
<path d="M46.2202 27.5566H59.4307L58.4907 32H38.8887L39.8286 27.5566L56.2861 11.27H43.6055L44.5625 6.80957H63.8057L62.8999 11.0308L46.2202 27.5566ZM65.6855 13.3721H70.6245L66.6768 32H61.7378L65.6855 13.3721ZM67.1211 6.65576H72.0601L71.103 11.1504H66.1641L67.1211 6.65576ZM71.5132 32L76.8623 6.80957H81.7329L76.3838 32H71.5132ZM81.2544 32L86.6035 6.80957H91.4741L86.125 32H81.2544ZM94.9092 13.3721H99.8481L95.9004 32H90.9614L94.9092 13.3721ZM96.3447 6.65576H101.284L100.327 11.1504H95.3877L96.3447 6.65576ZM119.621 15.7305C120.772 17.7015 121.062 20.0314 120.493 22.7202C119.912 25.4546 118.624 27.7959 116.63 29.7441C114.648 31.681 112.056 32.6494 108.854 32.6494C105.653 32.6494 103.471 31.681 102.309 29.7441C101.158 27.7959 100.874 25.4546 101.455 22.7202C102.024 20.0314 103.306 17.7015 105.3 15.7305C107.294 13.7594 109.891 12.7739 113.093 12.7739C116.294 12.7739 118.47 13.7594 119.621 15.7305ZM112.187 16.8926C110.763 16.8926 109.561 17.3996 108.581 18.4136C107.601 19.4162 106.912 20.8517 106.513 22.7202C106.114 24.5887 106.188 26.0299 106.735 27.0439C107.294 28.0579 108.285 28.5649 109.709 28.5649C111.133 28.5649 112.335 28.0579 113.315 27.0439C114.295 26.0299 114.984 24.5887 115.383 22.7202C115.782 20.8517 115.702 19.4162 115.144 18.4136C114.597 17.3996 113.611 16.8926 112.187 16.8926ZM136.318 20.6694C136.534 19.6896 136.563 18.9377 136.403 18.4136C136.13 17.4565 135.321 16.978 133.977 16.978C132.325 16.978 131.043 17.6787 130.131 19.0801C129.653 19.8206 129.294 20.7663 129.055 21.917L126.918 32H122.065L126.013 13.4062H130.712L130.131 16.1235C130.963 15.1665 131.704 14.4772 132.353 14.0557C133.515 13.3037 134.865 12.9277 136.403 12.9277C138.329 12.9277 139.793 13.4347 140.795 14.4487C141.809 15.4513 142.071 17.1204 141.582 19.4561L138.916 32H133.925L136.318 20.6694Z" fill="white"/>
<path d="M2 32.5L12 15.5L19 27.5L32 6M32 6L21.5 8.5M32 6L35.5 15.5" stroke="white" stroke-width="4"/>
</svg>
