<svg width="130" height="143" viewBox="0 0 130 143" fill="none" xmlns="http://www.w3.org/2000/svg">
<path d="M5.15032 78.782C4.41587 78.8599 3.66693 78.7662 2.93972 78.8988C1.56353 79.1495 0.388693 80.2722 0.0815846 81.6311C-0.225524 82.9887 0.353926 84.5033 1.4911 85.3161C2.79196 86.2442 4.61578 86.1981 6.06585 85.5251C7.51593 84.8521 8.64585 83.643 9.59035 82.3575C10.0887 81.6801 10.5508 80.9596 10.7913 80.1554C11.0317 79.3513 11.0288 78.4448 10.6261 77.7084C10.222 76.972 9.36872 76.4561 8.53576 76.5915C7.79551 76.7126 7.32471 77.2011 6.92344 77.766C6.47871 78.3958 5.95431 78.697 5.15032 78.782Z" fill="#F2D6B1"/>
<path d="M90.5831 59.5286C102.655 64.4255 116.247 65.1331 129.002 62.4598C126.552 68.2186 123.902 74.2425 118.911 78.0442C113.799 81.9366 106.993 82.8979 101.525 86.2759C96.5674 89.3383 93.0024 94.1978 88.3436 97.6925C83.6254 101.233 77.9598 103.254 72.3899 105.222C60.4228 109.453 48.3311 113.713 35.7151 115.166C34.3447 115.323 32.8902 115.436 31.6444 114.845C29.7656 113.954 28.9413 111.785 28.2894 109.818C21.4258 89.1048 12.8587 35.7428 16.7728 32.715C21.4099 29.1281 27.6448 31.4555 32.9178 31.4468C34.9922 31.4439 36.9 30.7003 38.9368 30.6153C41.398 30.513 43.7231 31.5895 45.9308 32.5522C56.2884 37.0701 65.1149 44.2959 74.4208 50.5475C79.5403 53.986 84.8509 57.2041 90.5831 59.5286Z" fill="#F46A4A"/>
<path d="M60.8458 106.524C51.9107 96.3076 42.9755 86.0914 34.0419 75.8767C31.2257 72.6558 27.0856 69.1106 23.1902 70.9005C21.759 71.5577 20.7928 72.7855 20.0757 74.2065C22.4688 87.7559 25.5182 101.445 28.2908 109.811C28.9427 111.777 29.767 113.946 31.6458 114.838C32.8917 115.428 34.3461 115.317 35.7165 115.159C44.9312 114.098 53.8663 111.539 62.6768 108.587C62.0554 107.903 61.4469 107.211 60.8458 106.524Z" fill="#E06046"/>
<path d="M49.7578 60.5432C60.8021 74.2886 72.6751 87.3726 85.2911 99.7057C86.3428 99.0889 87.3627 98.4202 88.3419 97.6853C92.8616 94.2943 96.3514 89.6193 101.083 86.5468C83.1645 79.4954 64.9959 72.2725 49.7578 60.5432Z" fill="#E06046"/>
<path d="M90.5832 59.5214C84.851 57.1954 79.5403 53.9788 74.4238 50.5403C65.1178 44.2873 56.2899 37.0629 45.9337 32.545C43.9694 31.6875 41.9123 30.7421 39.7495 30.6153C41.3488 32.4253 43.881 34.2585 45.2181 35.6131C47.6083 38.0357 50 40.4567 52.3902 42.8793C56.3131 46.8525 60.2432 50.8343 64.534 54.4097C72.3899 60.9553 81.425 66.0958 91.0815 69.5084C96.7789 71.5231 102.676 72.9368 108.623 74.0249C111.145 74.486 113.734 74.9083 115.979 76.1419C116.96 76.6809 117.868 77.413 118.582 78.2791C118.692 78.1984 118.804 78.1191 118.912 78.0355C123.904 74.2338 126.554 68.2114 129.004 62.4512C116.247 65.1259 102.655 64.4183 90.5832 59.5214Z" fill="#E06046"/>
<path d="M52.06 141.863C53.7028 142.163 55.3861 142.241 57.0491 142.096C57.1027 141.889 57.1548 141.681 57.2084 141.472C57.7879 141.841 58.4919 141.945 59.1742 142.032C62.2583 142.426 65.3627 142.664 68.47 142.744C65.3569 140.877 62.2279 139.004 58.8642 137.633C57.6966 137.158 56.4841 136.74 55.2253 136.656C54.5444 136.612 53.8346 136.672 53.232 136.993C52.5728 137.345 52.0731 138.112 51.9137 138.831C51.8456 139.144 51.7022 141.797 52.06 141.863Z" fill="#4B4E51"/>
<path d="M34.1894 142.094C32.6133 142.386 30.9981 142.468 29.4017 142.334C29.3495 142.135 29.2988 141.935 29.2467 141.736C28.6919 142.092 28.0154 142.194 27.362 142.281C24.4039 142.67 21.4241 142.909 18.4414 142.997C21.4227 141.196 24.4199 139.386 27.6431 138.058C28.7629 137.597 29.9247 137.192 31.1328 137.109C31.7861 137.063 32.4684 137.119 33.0479 137.424C33.6809 137.759 34.1648 138.494 34.3198 139.184C34.3864 139.484 34.5327 142.03 34.1894 142.094Z" fill="#4B4E51"/>
<path d="M29.0208 137.947C28.6383 137.23 28.5818 136.385 28.5297 135.57C27.7416 123.202 26.2162 110.867 23.5508 98.7762C23.4262 98.2099 23.3262 97.5368 23.7232 97.1204C23.9289 96.9042 24.2302 96.812 24.5228 96.7687C26.2727 96.5108 27.9155 97.7242 29.0338 99.1192C30.6374 101.115 31.6182 103.624 31.805 106.198L29.0208 137.947Z" fill="#F2D6B1"/>
<path d="M17.019 74.6647C17.019 75.0423 20.0177 87.0526 21.6938 100.9C23.6103 116.728 25.718 138.427 25.718 138.427L33.8651 137.972C33.8651 137.972 33.0973 119.426 33.4754 108.342C33.8651 96.8998 32.9148 88.8468 32.9148 88.8468C32.9148 88.8468 35.4122 95.5063 40 105.892C44.0475 115.054 52.1757 137.117 52.1757 137.117L60.9544 138.429L42.0237 77.7055L28.9021 71.2262L17.019 74.6647Z" fill="#73787F"/>
<path d="M45.04 87.3438L42.3021 78.5615C36.7626 77.4159 29.5064 70.9582 24.1031 72.614C21.6607 73.362 20.7379 80.84 18.6548 82.3186C19.6283 87.1348 20.8379 93.764 21.6998 100.877C23.6163 116.705 25.7241 138.404 25.7241 138.404L33.1888 137.986C30.5596 132.784 29.1283 127.822 27.6232 122.179C25.1924 113.064 24.1045 105.822 23.441 96.7313C23.2165 93.6516 23.8104 90.3154 28.8125 87.8597C32.0343 86.2817 38.9877 90.569 45.04 87.3438Z" fill="#62666B"/>
<path d="M52.1804 137.094L55.2355 137.551C54.9545 136.757 54.7082 135.947 54.4605 135.147C50.8839 123.601 45.8485 112.562 40.8261 101.56C38.6416 96.7745 32.7949 88.0211 32.75 88.0369C32.8514 88.769 32.9543 89.4997 33.0586 90.2318C32.9774 89.3167 32.918 88.8238 32.918 88.8238C32.918 88.8238 35.4155 95.4832 40.0033 105.869C44.0522 115.031 52.1804 137.094 52.1804 137.094Z" fill="#62666B"/>
<path d="M13.7307 36.0181C13.2019 37.7027 13.2932 39.5099 13.4018 41.2724C13.7944 47.6494 14.3362 54.0192 15.0286 60.3702C15.075 60.7939 15.1214 61.2262 15.0402 61.6442C14.9562 62.0808 14.7389 62.48 14.5245 62.8706C11.6925 68.0269 8.86185 73.1832 6.02979 78.3382C7.46247 79.4867 8.73871 80.8284 9.80925 82.3171C11.5157 81.3083 12.7992 79.7375 14.0407 78.1955C15.9282 75.8479 17.8013 73.4902 19.6613 71.121C19.9902 70.7031 20.3219 70.2779 20.5291 69.788C20.771 69.2187 20.8318 68.5933 20.8898 67.9793C21.6865 59.6006 22.4847 51.2032 22.379 42.7885C22.3529 40.6988 22.2616 38.5645 21.4996 36.6176C20.8753 35.0222 19.4629 33.0104 17.6608 32.5983C15.7761 32.1688 14.2247 34.4472 13.7307 36.0181Z" fill="#80868E"/>
<path d="M37.6489 31.3777C38.7817 31.7999 40.4549 32.4081 41.3704 33.2382C43.1812 34.8839 42.7958 35.8048 42.8292 38.3945C42.8857 42.7626 41.8108 47.073 40.7431 51.3156C39.8493 54.868 38.9555 58.4204 38.0617 61.9728C37.83 62.8936 37.5909 63.8318 37.1056 64.6331C36.2321 66.0742 34.6691 66.8726 33.1176 67.1997C30.991 67.6479 27.1579 72.4454 25.0372 72.0722C23.858 71.8646 23.5596 69.1769 22.3876 68.9276C21.8473 68.8123 22.0298 66.0151 21.7241 65.5237C21.5518 65.2456 21.4982 64.9011 21.4504 64.5668C20.6015 58.7173 19.7511 52.8677 18.9022 47.0168C18.359 43.2713 18.1967 36.596 18.2764 32.79C18.2909 32.1184 24.5345 30.0706 26.9812 29.8558C30.6187 29.5345 34.4155 29.6425 37.6489 31.3777Z" fill="white"/>
<path d="M35.6874 30.3112C32.7887 30.7925 29.7263 30.8286 26.6958 30.415C26.8276 27.0701 26.9594 23.7253 27.0927 20.3804C27.1058 20.0475 27.1275 19.6944 27.3593 19.4408C27.5476 19.2347 27.8504 19.1223 28.1531 19.0387C29.9682 18.5358 32.0673 18.7995 34.0056 19.3298C34.7255 19.5273 36.6594 18.7952 36.3697 19.4134C35.7178 20.7969 34.9617 23.6373 34.9385 24.4372C34.8791 26.3841 35.2832 28.3585 35.6874 30.3112Z" fill="#F2D6B1"/>
<path d="M39.1235 13.5423C39.0279 14.466 38.6223 15.3278 38.1993 16.1565C37.1664 18.1769 35.9872 20.1224 34.6748 21.9743C34.1982 22.6473 33.6955 23.3145 33.0509 23.8319C31.9977 24.6764 30.6186 25.0568 29.2656 25.0684C27.9126 25.0799 26.577 24.747 25.3051 24.2887C23.8231 23.7541 22.2586 22.8836 21.8168 21.3791C21.5951 20.6254 21.6936 19.8198 21.8182 19.0459C22.1297 17.1033 22.5947 15.1851 23.2089 13.3146C23.9115 11.1716 24.8473 9.03442 26.4625 7.4535C28.0777 5.87403 30.4998 4.95171 32.6655 5.61607C34.5719 6.20116 35.7917 7.74173 36.9694 9.23185C38.0747 10.6283 39.3321 11.5434 39.1235 13.5423Z" fill="#F2D6B1"/>
<path d="M24.1029 70.0416C25.0996 55.8825 29.541 41.9757 36.9406 29.84C40.1189 31.9022 44.1606 32.7467 46.8536 35.211C43.4261 42.9873 41.301 50.8732 41.0591 59.3614C40.8171 67.8482 42.8626 76.5367 47.7285 83.5118C48.0096 83.9153 48.3152 84.388 48.1805 84.8592C48.0733 85.2397 47.7111 85.4861 47.3664 85.685C42.9466 88.2257 37.3781 88.0888 32.5267 86.5093C30.7463 85.93 28.9659 85.1273 27.7332 83.7236C26.6641 82.5059 26.0977 80.9423 25.5877 79.4075C24.9721 77.5513 24.4042 75.6793 23.8885 73.7943C24.2985 76.4056 24.7084 79.0184 25.1169 81.6311C25.4197 83.5622 25.2241 84.2597 24.213 85.9343C22.3877 88.9564 19.8526 87.5873 17.5493 87.3394C16.4267 82.3185 15.9674 78.8483 15.556 73.8375C14.4638 60.5388 14.4261 47.109 16.3238 33.8996C16.3861 33.4629 16.46 33.0047 16.7367 32.6574C17.0119 32.3115 17.445 32.1342 17.8564 31.9714C19.9048 31.1629 22.0502 30.1008 24.1319 29.5316C21.3534 33.4125 21.2433 39.5445 21.1245 44.2267C20.9811 49.8428 21.5577 55.4545 22.437 60.9957C22.6818 62.5377 22.9513 64.0768 23.2366 65.613C23.4815 66.9316 24.1971 68.7114 24.1029 70.0416Z" fill="#8D939E"/>
<path d="M25.037 29.1223C25.037 29.1223 22.4092 35.4329 22.047 40.7521C21.6849 46.0713 24.1026 70.0416 24.1026 70.0416L18.2574 48.1451L19.7365 44.6288L16.6089 40.8415L19.1469 30.6988C19.1469 30.6988 19.7394 29.9365 22.3889 29.5287C25.037 29.1223 25.037 29.1223 25.037 29.1223Z" fill="#73787F"/>
<path d="M41.0589 59.7606C41.2212 54.0912 42.2236 48.6913 43.8924 43.4125C43.7635 43.3909 43.6317 43.3779 43.4999 43.375C42.1367 43.3433 40.6678 44.4429 39.8102 45.4445C38.8483 46.5685 38.8802 48.4723 38.6919 49.8644C38.1428 53.9183 37.9067 58.0312 38.2442 62.1154C38.434 64.4126 38.8063 66.6967 39.4017 68.9262C40.6272 73.5176 42.9233 77.9289 46.1436 81.4034C42.4177 74.9111 40.8445 67.2588 41.0589 59.7606Z" fill="#80868E"/>
<path d="M36.6003 29.5301C36.6003 29.5301 31.1883 38.4362 28.4692 45.4675C25.7501 52.5002 24.1117 70.6627 24.103 70.0401C24.0943 69.4176 34.3723 49.226 34.3723 49.226L32.2878 45.1677L37.2725 43.6344C37.2725 43.6344 38.0881 38.4045 39.9003 36.2414C41.7125 34.0783 44.2505 32.5435 44.2505 32.5435L36.6003 29.5301Z" fill="#73787F"/>
<path d="M46.5351 79.8023C46.593 79.4406 46.6611 79.0573 46.9074 78.7849C47.1131 78.5572 47.4144 78.4419 47.7085 78.3554C49.273 77.8928 50.9447 78.0153 52.5686 78.1768C52.8525 78.2041 53.151 78.2387 53.3856 78.4016C53.7029 78.6221 53.8304 79.027 53.8912 79.4075C53.997 80.0718 53.9636 80.7492 53.9318 81.4207C53.9173 81.7003 53.9028 81.9857 53.7999 82.2451C53.6971 82.5059 53.4899 82.7408 53.2147 82.8028C52.9409 82.8633 52.6135 82.6961 52.5672 82.4194C52.544 82.2768 52.5932 82.1326 52.6352 81.9943C52.8815 81.1916 52.9061 80.3226 52.7033 79.5083C52.6671 79.3614 52.6208 79.2115 52.5208 79.0962C52.3296 78.8743 52.0008 78.8454 51.7067 78.8382C50.6897 78.8152 49.6728 78.8728 48.6646 79.0097C48.4125 79.0443 48.146 79.0904 47.9605 79.2634C47.7244 79.4839 47.6911 79.8398 47.6737 80.1612C47.6418 80.7362 47.61 81.3112 47.5781 81.8862C47.5593 82.2148 47.51 82.5981 47.2246 82.7653C46.8639 82.9771 46.3786 82.6457 46.2801 82.2407C46.186 81.8559 46.3511 81.4769 46.3844 81.0965C46.4235 80.6613 46.4641 80.2376 46.5351 79.8023Z" fill="#4B4E51"/>
<path d="M60.5592 100.899L40.3422 101.279C38.627 101.311 37.2103 99.955 37.1784 98.2487L36.9263 84.9717C36.8945 83.2654 38.2576 81.8559 39.9728 81.8242L60.1898 81.4438C61.905 81.4121 63.3217 82.7682 63.3536 84.4745L63.6056 97.7516C63.6375 99.4564 62.2729 100.866 60.5592 100.899Z" fill="#4B4E51"/>
<path d="M39.9684 81.8185L41.1983 81.7954C40.7637 82.3387 40.5102 83.029 40.5247 83.777L40.7767 97.054C40.8086 98.7603 42.2253 100.116 43.9405 100.085L62.9276 99.7273C62.3714 100.423 61.5181 100.876 60.5548 100.893L40.3378 101.274C38.6226 101.305 37.2059 99.9493 37.174 98.243L36.9219 84.9659C36.8901 83.2596 38.2547 81.8502 39.9684 81.8185Z" fill="#393B3D"/>
<path d="M48.554 72.7019C48.2512 73.4715 47.3487 78.4708 47.5168 79.2792C47.6848 80.0877 48.2005 80.8472 48.9582 81.1873C49.4753 81.4193 50.0606 81.4438 50.6255 81.4078C51.0471 81.3804 51.4759 81.3184 51.8482 81.121C52.2205 80.925 52.5319 80.5719 52.5826 80.1554C52.6101 79.9306 52.5623 79.7029 52.5363 79.4781C52.4464 78.7114 52.6101 77.9404 52.6869 77.1723C52.7622 76.4042 52.7376 75.5799 52.319 74.9285C52.2538 74.8276 52.177 74.7296 52.0712 74.672C51.8467 74.5523 51.5729 74.6489 51.3382 74.7469C50.6559 75.0322 49.6897 71.8978 48.554 72.7019Z" fill="#F2D6B1"/>
<path d="M50.9804 55.5165C49.3623 61.3488 48.2787 67.328 47.75 73.3562C47.7326 73.5464 47.7181 73.7468 47.7978 73.9197C47.8789 74.0984 48.0455 74.2223 48.2063 74.3362C49.6651 75.368 51.2252 76.2558 52.8578 76.9835C55.6841 71.3012 56.9763 65.0006 58.041 58.749C58.28 57.341 58.5118 55.9128 58.3814 54.4919C58.2728 53.3029 57.915 52.1486 57.492 51.0317C55.2321 45.0583 51.1195 39.9769 46.8533 35.2096C46.5998 34.9257 46.3245 34.6303 45.958 34.5265C45.5206 34.404 45.0599 34.5827 44.6499 34.7773C42.9014 35.6059 41.3224 36.7819 40.0303 38.2172C38.7787 39.6079 37.3938 41.8229 38.0659 43.7886C38.5266 45.1375 40.1853 45.7803 41.108 46.7977C42.6103 48.455 44.0256 50.1224 45.7118 51.6082C46.184 52.0261 51.0036 55.4315 50.9804 55.5165Z" fill="#8D939E"/>
<path d="M53.1302 76.6059C50.7356 70.2938 50.6979 63.091 53.1707 56.7991C53.6212 55.652 54.1659 54.512 55.0293 53.6315C54.1674 53.9485 53.2765 54.1892 52.3711 54.3506C53.191 54.0307 53.8979 53.4312 54.3456 52.6775C51.4324 52.4109 48.4105 52.101 45.8928 50.6167C44.8064 49.9768 43.8532 49.1395 42.9072 48.3065C42.3394 47.8079 41.7729 47.3078 41.2051 46.8092C42.703 48.4622 44.1168 50.1267 45.7987 51.6082C46.2724 52.0261 51.0919 55.4315 51.0688 55.515C49.4506 61.3473 48.3671 67.3265 47.8383 73.3547C47.8209 73.545 47.8065 73.7453 47.8861 73.9182C47.9673 74.0969 48.1338 74.2209 48.2946 74.3347C49.7534 75.3665 51.3136 76.2543 52.9462 76.982C53.007 76.8581 53.0679 76.7327 53.1302 76.6059Z" fill="#80868E"/>
<path d="M41.0994 46.6968C41.0936 46.6334 41.0864 46.57 41.082 46.5051L39.0337 44.8983C39.4639 45.2773 39.8942 45.6563 40.3244 46.0339C40.6026 46.2457 40.8705 46.4619 41.0994 46.6968Z" fill="#80868E"/>
<path d="M34.6792 34.6591C29.8437 36.1377 25.4428 39.1785 22.6628 43.3822C22.7787 39.948 21.4837 36.4879 19.1398 33.9659C18.6183 33.4053 18.0171 32.8721 17.2783 32.6646C16.5381 32.457 15.3647 33.1373 14.9663 33.7915C15.5226 31.5693 18.3184 30.2694 20.3393 29.4984C22.3601 28.7274 24.5156 28.3859 26.6538 28.0486C27.0116 28.8802 27.4375 29.6829 27.9286 30.4452C31.7225 28.4925 36.2567 28.1769 40.407 29.1828C44.4429 30.1599 48.4976 32.3677 51.4485 35.2917C50.391 34.9891 49.4523 34.391 48.3919 34.1158C46.9519 33.7425 45.3889 33.6287 43.9084 33.5581C40.7967 33.4111 37.6561 33.7483 34.6792 34.6591Z" fill="#F46A4A"/>
<path d="M21.6995 47.9794C22.0312 49.7146 22.4904 51.4468 23.3364 53.0018C24.181 54.5553 25.4456 55.9301 27.0637 56.6579C26.1482 55.2297 25.6759 53.5249 25.7281 51.833C25.7817 50.0604 26.3901 48.344 26.4901 46.5729C26.59 44.7989 25.7672 39.4307 23.0322 40.0071C20.2132 40.6009 21.3431 46.1204 21.6995 47.9794Z" fill="#F46A4A"/>
<path d="M21.811 39.2044C21.5648 39.5892 21.5068 40.0618 21.4851 40.5172C21.4793 40.6297 21.4764 40.7449 21.5083 40.853C21.5648 41.0519 21.7314 41.2032 21.9168 41.294C22.1037 41.3834 22.3108 41.4208 22.5136 41.4554C23.1597 41.5664 23.8145 41.6773 24.4693 41.6384C24.7271 41.6226 24.9966 41.5794 25.1965 41.4165C25.3355 41.3027 25.4283 41.1427 25.5021 40.9798C25.7107 40.523 25.8005 39.9797 25.5948 39.5214C25.4123 39.115 25.0212 38.8311 24.5996 38.6769C23.7276 38.3584 22.3847 38.3094 21.811 39.2044Z" fill="#F2CF3D"/>
<path d="M27.7346 30.1657C27.7897 30.2622 27.8447 30.3631 27.8563 30.4726C27.878 30.6816 27.739 30.8689 27.6115 31.0361C26.9379 31.921 26.3773 32.8908 25.9456 33.914C25.6008 32.0463 25.0822 30.2103 24.3984 28.4378C24.7751 28.3974 26.5265 27.7921 26.6815 27.9622C26.7293 28.0155 26.6974 28.2763 26.722 28.3585C26.78 28.5502 26.9306 28.739 27.0291 28.9119C27.2653 29.3298 27.4999 29.7477 27.7346 30.1657Z" fill="#E06046"/>
<path d="M21.943 71.2219C21.8053 71.8445 21.9024 72.5982 22.4341 72.9512C22.4862 72.9858 22.5441 73.0175 22.6079 73.0204C22.7151 73.0262 22.8092 72.9484 22.8759 72.8648C23.183 72.4713 23.099 71.918 23.1352 71.4208C23.1511 71.2032 23.1917 70.9783 23.1192 70.7723C22.8281 69.9407 22.0458 70.7622 21.943 71.2219Z" fill="#62666B"/>
<path d="M22.1198 75.8464C22.0822 76.4776 22.2502 77.2169 22.7196 77.5181C22.7659 77.5484 22.8166 77.5729 22.8673 77.57C22.9543 77.5643 23.0209 77.4792 23.0644 77.3899C23.2657 76.9705 23.1324 76.4272 23.102 75.9315C23.089 75.7139 23.0948 75.4862 23.0122 75.2887C22.679 74.4903 22.1474 75.3809 22.1198 75.8464Z" fill="#62666B"/>
<path d="M26.6958 24.7226C26.6958 24.7226 27.1 25.1549 29.1686 24.6476C31.3517 24.113 32.4222 21.8533 32.4222 21.8533C32.4222 21.8533 32.089 24.9863 30.0812 26.524C28.072 28.0616 26.7233 28.3585 26.7233 28.3585L26.6958 24.7226Z" fill="#CEB699"/>
<path d="M20.3842 14.6519C20.3219 14.7254 20.2553 14.8119 20.264 14.9084C20.2726 14.9964 20.3407 15.0641 20.4059 15.1246C21.22 15.8711 22.1674 16.4721 23.1902 16.8914C23.2525 16.9174 23.3263 16.9419 23.3872 16.9116C23.4393 16.8857 23.4654 16.8266 23.4871 16.7718C24.1463 15.1174 24.7663 13.4471 25.3472 11.7639C25.6181 10.9771 25.8803 10.1844 26.0599 9.37164C26.1063 9.16124 26.1439 8.92489 26.0295 8.74043C25.5992 8.04581 23.6697 10.7753 23.3684 11.1313C22.3717 12.3058 21.3779 13.4788 20.3842 14.6519Z" fill="#F2D6B1"/>
<path d="M26.1485 2.54936C26.5715 1.6746 27.1539 0.832983 28.0042 0.35453C28.8531 -0.123924 30.012 -0.154187 30.7465 0.485672C31.084 0.779662 31.3042 1.18174 31.5447 1.55787C31.9764 2.23232 32.4979 2.85056 33.0889 3.39098C33.8523 4.08849 34.7273 4.65341 35.5371 5.29615C37.2015 6.61622 38.5937 8.27496 39.6034 10.1398C40.0423 10.9497 40.4146 11.8201 40.4711 12.7381C40.5884 14.6563 39.3339 16.3654 38.0823 17.8296C36.8307 19.2938 35.4545 20.8416 35.2459 22.7525C34.5969 21.5045 33.7944 20.3357 32.8615 19.2808C33.496 19.0085 34.1391 18.7318 34.6693 18.2908C35.1981 17.8498 35.6066 17.2143 35.6081 16.5268C35.6095 15.8394 35.1112 15.1376 34.426 15.0555C33.9537 14.9978 33.4887 15.2255 33.0136 15.2255C32.3675 15.2255 31.7851 14.8033 31.4041 14.2844C31.0232 13.7642 30.803 13.1503 30.5451 12.5609C30.1656 11.6947 29.6919 10.8704 29.137 10.1037C28.6677 9.45524 28.1158 8.82979 27.3842 8.49977C27.1075 8.37439 26.8033 8.30089 26.4991 8.28937C26.2485 8.27928 25.7748 8.50121 25.5749 8.44933C25.0186 8.30666 25.1519 7.30075 25.1577 6.78483C25.1765 5.32065 25.5126 3.86511 26.1485 2.54936Z" fill="#72594C"/>
<path d="M30.0002 12.0536C30.1305 11.8864 30.09 11.6328 29.9625 11.4642C29.835 11.2941 29.6395 11.1903 29.4482 11.0981C28.5342 10.6528 27.5578 10.3314 26.5568 10.147C26.0527 10.0547 25.4703 10.0158 25.0879 10.3559C24.5084 10.8719 25.2154 10.8805 25.5746 10.843C26.0845 10.7897 26.6002 10.82 27.1029 10.9093C28.1329 11.0938 29.1093 11.5204 30.0002 12.0536Z" fill="#72594C"/>
<path d="M27.5638 13.1733C27.8868 13.4125 28.204 13.6604 28.5141 13.9169C27.7506 13.9991 26.9858 14.0654 26.2209 14.1158C26.0673 14.1259 25.8674 12.6977 26.047 12.5421C26.3715 12.2596 27.3131 12.9889 27.5638 13.1733Z" fill="white"/>
<path d="M26.0167 13.9487C26.0558 14.0294 26.1123 14.123 26.2021 14.1245C26.3079 14.1259 26.3658 14.0034 26.3905 13.9011C26.4614 13.6129 26.489 13.3131 26.473 13.0162C26.4556 12.6747 26.1167 12.1516 25.7907 12.5637C25.5025 12.9298 25.853 13.6071 26.0167 13.9487Z" fill="#72594C"/>
<path d="M32.6367 17.8469C32.8917 17.9377 33.1756 17.8757 33.4291 17.7835C33.7406 17.6697 34.0404 17.5097 34.278 17.2791C34.5156 17.0485 34.6894 16.7445 34.7242 16.4159C34.7343 16.3251 34.7329 16.2314 34.7068 16.1435C34.63 15.8783 34.336 15.7184 34.0578 15.7256C33.8463 15.7313 33.6276 15.8164 33.4566 15.9389C33.2669 16.0758 33.2321 16.2545 33.151 16.4706C33.1104 16.5859 32.6396 17.8469 32.6367 17.8469Z" fill="#CEB699"/>
<path d="M24.7749 19.8587C24.1288 19.6368 23.5103 19.3399 22.9352 18.9725C22.6063 18.7635 22.1949 18.5243 21.856 18.7159C22.0906 18.5833 21.8589 18.1654 22.1761 18.1049C22.3717 18.0674 22.9236 18.4998 23.0945 18.605C23.6928 18.9696 24.2563 19.3889 24.7749 19.8587Z" fill="#CEB699"/>
<path d="M36.2884 10.5836C36.8346 11.8201 37.0113 13.2526 36.5883 14.5352C36.8447 14.2484 37.0997 13.9616 37.3561 13.6749C37.0692 15.1765 36.4884 16.622 35.6554 17.906C37.6878 16.2847 38.9974 13.7988 39.1828 11.2149C39.0669 11.5247 38.951 11.8331 38.8351 12.1429C38.5961 10.7724 37.895 9.48551 36.8708 8.54013C37.1431 9.0575 37.3184 9.62386 37.3865 10.2046C37.204 8.77071 36.1581 7.60628 35.0832 6.63496C34.0083 5.66365 32.8204 4.73988 32.1772 3.44287C32.4858 4.06544 32.5713 4.82779 32.8842 5.47054C33.1855 6.08878 33.5766 6.65514 33.9315 7.24168C34.6443 8.42196 35.7133 9.28519 36.2884 10.5836Z" fill="#9B776A"/>
</svg>
