<svg width="187" height="112" viewBox="0 0 187 112" fill="none" xmlns="http://www.w3.org/2000/svg">
<path d="M181.471 18.0408C182.017 17.8809 182.599 17.7242 183.149 17.8732C183.549 17.9818 183.899 18.244 184.307 18.3216C184.725 18.4008 185.153 18.2766 185.573 18.2083C185.994 18.1401 186.473 18.1478 186.789 18.4349C187.105 18.7204 187.07 19.3613 186.658 19.473C187.089 20.283 186.464 21.4374 185.547 21.5212C185.807 21.7602 185.782 22.1962 185.589 22.491C185.396 22.7858 185.078 22.9721 184.77 23.1458C180.077 25.7977 175.142 28.0275 170.048 29.7995C168.69 30.2728 167.313 30.7135 165.895 30.9602C164.678 31.1712 163.182 31.1185 162.521 30.0773C162.091 29.3992 162.183 28.4899 162.563 27.7839C162.943 27.0778 163.568 26.5363 164.202 26.0429C169.22 22.1248 175.431 19.8128 181.471 18.0408Z" fill="#F2D6B1"/>
<path d="M131.356 26.4944C132.087 26.8001 132.834 27.1337 133.376 27.711C133.917 28.2882 134.21 29.1711 133.877 29.8895C133.578 30.5335 132.879 30.8826 132.216 31.1402C127.983 32.7897 122.955 32.6376 119.103 30.2325C117.505 29.2347 114.839 25.8272 117.404 24.3252C118.512 23.6765 120.281 23.8643 121.505 23.9357C123.115 24.0303 124.709 24.3205 126.267 24.7317C128.005 25.191 129.7 25.8024 131.356 26.4944Z" fill="#E06046"/>
<path d="M7.54331 22.4258C7.54331 22.4258 3.08314 31.0672 8.5393 40.9578C9.55552 42.7996 7.51997 44.8835 6.57845 46.7642C3.90483 52.1036 6.83989 58.8038 11.4386 62.6241C16.0372 66.4444 21.9416 68.2211 27.446 70.5641C28.3969 70.9691 29.3804 71.4222 30.0122 72.2384C30.6705 73.0872 30.8511 74.1951 31.1561 75.2239C32.5162 79.8262 36.522 83.1313 40.5962 85.6839C45.1746 88.5529 50.1095 90.8526 55.2544 92.5113C58.5147 93.5634 61.898 94.3765 64.8719 96.074C68.1369 97.9361 70.9397 100.867 74.6388 101.538C78.1995 102.183 81.7524 100.572 84.9302 98.8469C102.128 89.5088 116.016 75.2115 128.953 60.5526C134.291 54.5025 142.818 39.5348 146.456 30.5474C147.138 28.8638 138.326 40.2595 137.195 38.8381C136.368 37.8001 135.239 37.0475 134.096 36.3725C128.183 32.8765 120.303 30.4543 113.406 29.9485C110.023 29.7002 106.486 31.1588 103.224 31.8834C99.3192 32.7508 95.3819 33.477 91.4244 34.0636C75.4154 36.4346 59.0672 36.5075 43.0364 34.2839C33.962 33.0301 7.54331 22.4258 7.54331 22.4258Z" fill="#F46A4A"/>
<path d="M5.85742 29.2268C6.8752 29.3215 7.91477 29.562 8.85629 29.8258C23.5752 33.9502 38.8123 36.2234 54.0961 36.5772C57.5976 36.6579 61.1411 36.6362 64.5882 35.9519C64.6536 35.9395 64.7174 35.9255 64.7827 35.9115C57.5027 35.8402 50.2257 35.3064 43.0141 34.3071C33.9428 33.0487 7.52415 22.4459 7.52415 22.4459C7.52415 22.4459 6.1391 25.1335 5.85742 29.2268Z" fill="#E06046"/>
<path d="M111.946 78.5181C98.2747 82.3833 83.7285 87.5567 69.7566 90.1279C64.2989 91.1318 58.6685 91.9402 53.1392 91.8146C53.8332 92.0644 54.532 92.3049 55.2339 92.5314C58.4942 93.5835 61.8774 94.3966 64.8514 96.0941C68.1148 97.9562 70.9192 100.887 74.6183 101.558C78.179 102.203 82.4602 101.967 85.6396 100.24C95.1544 95.0762 103.883 85.7536 111.946 78.5181Z" fill="#E06046"/>
<path d="M8.1204 40.2144C8.24801 40.4673 8.38029 40.7218 8.52191 40.9778C9.53813 42.8197 7.50257 44.9036 6.56105 46.7843C5.88098 48.142 5.56662 49.5867 5.54639 51.0499C6.66376 50.6449 7.83872 50.3625 8.96699 50.181C22.6292 47.9713 36.8594 52.1097 50.3551 49.0467C35.9148 47.9512 20.9562 46.7005 8.1204 40.2144Z" fill="#E06046"/>
<path d="M29.9933 72.257C30.6516 73.1058 30.8321 74.2137 31.1372 75.2425C32.0009 78.1659 33.9337 80.5648 36.2712 82.582C36.9979 80.8177 38.867 79.522 40.6068 78.5274C44.7978 76.1331 49.1599 74.0368 53.6481 72.257C54.9756 71.731 56.5318 70.9567 56.6454 69.5384C49.5723 66.8586 41.7211 69.1489 34.1687 69.5865C30.7154 69.7867 27.2699 69.5881 23.8462 69.1288C25.0476 69.6051 26.2459 70.0815 27.4271 70.5843C28.378 70.9877 29.3615 71.4408 29.9933 72.257Z" fill="#E06046"/>
<path d="M42.5209 96.5488C41.2494 97.7498 40.1429 99.1215 39.2372 100.616C39.3804 100.79 39.5251 100.963 39.6699 101.137C38.9976 101.396 38.4731 101.927 37.9782 102.45C35.7357 104.808 33.613 107.28 31.6226 109.855C35.135 108.384 38.6645 106.905 41.9108 104.916C43.0375 104.225 44.1425 103.462 44.9922 102.45C45.4513 101.902 45.8388 101.266 45.9384 100.558C46.0473 99.7856 45.7034 98.8872 45.1898 98.3069C44.9673 98.0524 42.7979 96.2881 42.5209 96.5488Z" fill="#4B4E51"/>
<path d="M10.8983 89.9433C9.62843 91.1443 8.52039 92.516 7.61466 94.0103C7.75783 94.1841 7.90256 94.3579 8.04729 94.5316C7.375 94.7908 6.85055 95.323 6.35567 95.8444C4.11157 98.1999 1.99043 100.673 0 103.246C3.51242 101.775 7.04197 100.296 10.2883 98.3069C11.415 97.6164 12.5199 96.853 13.3696 95.8413C13.8287 95.2935 14.2162 94.6573 14.3158 93.9498C14.4247 93.177 14.0808 92.2786 13.5673 91.6983C13.3447 91.4469 11.1753 89.6811 10.8983 89.9433Z" fill="#4B4E51"/>
<path d="M88.3928 89.11C87.8466 94.3454 87.3035 99.677 88.3134 104.843C88.5422 106.011 88.883 107.226 89.7234 108.055C90.0097 108.337 90.3599 108.57 90.7536 108.63C91.8897 108.803 92.6958 107.566 93.1876 106.506C98.222 95.6426 102.595 83.6899 100.598 71.8256C100.318 70.1637 99.8934 68.4755 98.9208 67.1116C97.9481 65.7476 96.3187 64.7654 94.6862 64.9935C90.6509 65.5598 90.335 70.2367 90.1 73.4161C89.7094 78.6531 88.9375 83.8885 88.3928 89.11Z" fill="#F2D6B1"/>
<path d="M65.9891 68.0194C61.0947 69.9326 56.1163 71.894 51.983 75.168C51.0477 75.9082 50.1217 76.7709 49.7653 77.9021C49.6439 78.287 49.5941 78.7075 49.7171 79.0876C50.075 80.1831 51.5348 80.3352 52.6973 80.2886C64.6072 79.8045 77.1862 78.228 86.824 70.9971C88.1748 69.9838 89.482 68.8309 90.2555 67.3351C91.0289 65.8392 91.1705 63.9322 90.2321 62.5776C87.9149 59.2306 83.6212 61.0957 80.6908 62.3417C75.8665 64.3962 70.8726 66.1092 65.9891 68.0194Z" fill="#F2D6B1"/>
<path d="M104.15 73.2749C104.537 70.9396 104.403 68.505 103.647 66.2644C103.659 65.1921 103.371 64.1572 102.676 63.3177C101.867 62.3417 100.65 61.7986 99.4419 61.4075C91.9098 58.9729 85.8015 58.2623 78.2585 60.6658C72.6109 62.4658 39.5362 76.7104 30.0011 81.2569C25.2484 83.5223 12.5526 90.4522 12.5526 90.4522C12.5526 90.4522 10.4206 96.8964 11.8228 98.0959C12.1184 98.3488 12.439 98.6017 12.8219 98.6778C13.2171 98.7569 13.6233 98.6343 14.0077 98.5148C38.078 91.031 62.8222 85.8235 86.8613 78.2605C86.6948 85.0228 86.6886 91.7913 86.8473 98.5536C80.9601 95.5868 74.2729 94.454 67.6776 94.4463C61.0823 94.437 54.5336 95.5107 48.0581 96.7583C47.0404 96.9538 45.9899 97.168 45.1433 97.7638C43.1591 99.1572 43.0159 101.984 43.0673 104.404C60.6932 103.106 78.316 106.849 95.2666 111.839C99.2396 112.899 101.849 87.1099 104.15 73.2749Z" fill="#73787F"/>
<path d="M75.6065 34.633C71.54 40.6676 70.0258 48.004 68.5972 55.1325C69.7955 55.7764 71.1899 54.7787 72.1781 53.8477C75.899 50.3424 78.2536 46.3452 81.1871 42.1634C84.5999 37.2957 89.043 33.7687 86.7071 31.1805C83.0359 27.1135 77.6109 31.6584 75.6065 34.633Z" fill="#F2D6B1"/>
<path d="M88.7148 26.9846C85.9976 27.4843 83.0486 28.2989 81.5126 30.5861C80.7796 31.677 80.4699 33.1511 81.0877 34.3102C82.051 36.1148 84.5394 36.2576 86.5906 36.2281C93.4427 36.1334 100.41 36.7696 107.068 35.1497C110.182 34.3924 112.244 32.338 111.308 28.9693C110.732 26.8977 109.425 25.9186 107.337 25.6502C101.403 24.8867 94.5429 25.9124 88.7148 26.9846Z" fill="#F2D6B1"/>
<path d="M135.369 40.9127C135.064 38.0157 134.509 34.8595 132.918 32.5273C130.554 29.0608 125.171 27.6814 120.448 27.534C119.244 26.8342 110.231 24.7673 107.888 26.6278C103.932 29.7669 103.465 34.9961 100.441 39.0429C97.9092 42.4318 95.3772 45.8192 92.8452 49.2081C92.1901 50.0863 91.5224 50.9832 91.1583 51.9996C90.5031 53.8275 90.9264 55.8012 91.7637 57.4197C92.9106 59.637 94.7719 61.3517 96.6502 62.9639C97.696 63.8607 98.7574 64.7406 99.8343 65.6002C100.331 65.9974 100.903 66.4102 101.566 66.3233C101.941 66.2736 102.288 66.0688 102.623 65.8686C108.484 62.3525 114.345 58.8348 120.205 55.3187C123.957 53.0672 130.056 48.336 133.41 45.4856C134.001 44.9828 134.593 44.4459 134.957 43.7663C135.43 42.8818 135.469 41.8623 135.369 40.9127Z" fill="white"/>
<path d="M117.746 29.1555C120.652 30.8857 123.92 32.2031 127.343 33.0255C128.612 29.3759 129.88 25.7263 131.148 22.0767C131.274 21.7136 131.401 21.3257 131.259 20.9564C131.144 20.6553 130.865 20.4102 130.577 20.1929C128.844 18.8926 126.481 18.2999 124.18 18.0593C123.324 17.9693 122.39 17.9383 121.705 18.3293C120.723 18.8911 121.29 19.566 121.514 20.2938C121.795 21.2093 121.339 22.2893 121.028 23.1582C120.269 25.2747 119.004 27.2268 117.746 29.1555Z" fill="#F2D6B1"/>
<path d="M135.87 16.3043C136.37 13.7518 136.631 11.0736 135.895 8.57845C135.159 6.08332 133.242 3.80077 130.689 3.26389C128.442 2.79062 126.348 3.66267 124.324 4.5068C122.426 5.29971 120.647 5.52161 119.73 7.65208C119.307 8.63741 119.229 9.73291 119.189 10.8036C119.091 13.4166 119.183 16.0375 119.461 18.6381C119.562 19.5831 120.681 20.7003 120.876 21.6298C121.134 22.8665 123.16 24.7766 123.16 24.7766C124.514 25.5447 126.046 25.9528 127.585 26.2011C129.378 26.4897 131.44 26.485 132.731 25.2142C133.377 24.578 133.732 23.7106 134.043 22.8603C134.823 20.7267 135.434 18.5326 135.87 16.3043Z" fill="#F2D6B1"/>
<path d="M118.977 14.2654C118.764 11.8262 118.556 9.33726 119.114 6.95385C119.675 4.57045 121.144 2.26307 123.414 1.33205C126.497 0.0658696 130.053 1.59739 133.332 0.986026C135.329 0.613619 137.411 -0.540844 139.26 0.300176C140.617 0.917751 141.337 2.48652 141.361 3.97304C141.386 5.46112 140.841 6.89334 140.273 8.26969C139.391 10.4095 138.488 12.9294 136.376 13.8868C136.558 12.827 135.732 11.5112 134.887 10.8424C134.042 10.1736 132.985 9.83846 131.944 9.55139C129.806 8.9602 127.495 8.51641 125.398 9.2395C123.301 9.96259 121.601 12.2513 122.274 14.3601C121.863 13.8201 121.075 13.5998 120.442 13.8465C119.808 14.0948 119.382 14.7884 119.449 15.4649C119.524 16.219 120.674 17.4697 121.12 18.199L120.99 21.1379C120.696 21.366 120.33 21.5522 120.02 21.7198C119.584 20.5219 119.399 19.8935 119.359 18.6521C119.312 17.1919 119.105 15.7194 118.977 14.2654Z" fill="#72594C"/>
<path d="M121.15 22.4647C121.248 22.5485 123.422 24.1327 125.489 25.0591C127.555 25.9855 129.639 26.3517 129.639 26.3517L128.203 30.4869C128.203 30.4869 126.287 29.7685 124.287 27.3711C122.286 24.9753 121.15 22.4647 121.15 22.4647Z" fill="#CEB699"/>
<path d="M131.869 20.4892C130.847 20.2332 129.823 19.9772 128.8 19.7227C128.628 19.6792 128.416 19.5908 128.419 19.4294C128.422 19.2479 128.687 19.2013 128.884 19.2184C129.233 19.2479 129.58 19.3115 129.916 19.4093C130.122 19.4682 130.344 19.5411 130.543 19.4791C130.802 19.3984 130.911 19.1299 130.99 18.8894C131.676 16.8024 132.222 14.6781 132.87 12.5818C133.268 12.8316 132.507 15.7069 132.428 16.2562C132.375 16.6131 131.774 20.466 131.869 20.4892Z" fill="#CEB699"/>
<path d="M128.439 10.4716C128.165 10.304 127.89 10.1364 127.594 10.0076C127.306 9.88346 127.001 9.79812 126.69 9.75467C126.623 9.74536 126.531 9.75932 126.526 9.82605C126.525 9.86018 126.55 9.88811 126.575 9.91294C126.811 10.1519 127.048 10.3924 127.284 10.6314C127.58 10.9309 127.874 11.2288 128.198 11.4988C128.948 12.1241 129.832 12.5741 130.731 12.9574C130.962 13.0551 131.206 13.1513 131.453 13.125C131.715 13.097 132.073 12.8317 131.88 12.5741C131.776 12.436 131.469 12.3227 131.32 12.2312C131.12 12.1101 130.923 11.9891 130.724 11.8681C129.963 11.401 129.202 10.9355 128.439 10.4716Z" fill="#72594C"/>
<path d="M136.144 12.7214C136.356 12.7106 136.569 12.6982 136.768 12.7307C136.965 12.7618 137.147 12.8316 137.31 12.9418C137.344 12.9651 137.38 13.0194 137.347 13.0768C137.33 13.1063 137.304 13.1171 137.28 13.1264C137.049 13.2149 136.817 13.3049 136.585 13.3933C136.295 13.5035 136.006 13.6152 135.72 13.6881C135.053 13.8588 134.419 13.82 133.812 13.7207C133.656 13.6943 133.496 13.6618 133.396 13.5237C133.292 13.3794 133.268 12.9914 133.489 12.8673C133.608 12.8006 133.807 12.8487 133.922 12.8425C134.075 12.8347 134.229 12.8254 134.381 12.8176C134.969 12.7851 135.556 12.754 136.144 12.7214Z" fill="#72594C"/>
<path d="M131.351 21.6888C131.548 21.7586 131.776 21.8889 131.768 22.0969C131.762 22.2551 131.608 22.3746 131.452 22.3995C131.296 22.4227 131.138 22.3746 130.988 22.3265C129.348 21.7958 127.667 21.1767 125.952 21.349C127.731 21.169 129.62 21.0712 131.351 21.6888Z" fill="#CEB699"/>
<path d="M120.904 14.6968C120.622 14.7309 120.367 14.9497 120.311 15.2275C120.272 15.4199 120.323 15.6216 120.417 15.7939C120.509 15.9661 120.641 16.1151 120.77 16.2625C121.042 16.5728 121.316 16.8816 121.589 17.1919C121.498 17.0895 121.57 16.5449 121.568 16.4006C121.565 16.1166 121.565 15.8327 121.578 15.5487C121.587 15.3159 121.666 15.0987 121.525 14.914C121.396 14.7449 121.103 14.672 120.904 14.6968Z" fill="#CEB699"/>
<path d="M127.477 13.3624C128.238 13.547 128.985 13.7984 129.662 14.1925C129.774 14.2577 129.89 14.3306 129.953 14.4501C130.017 14.5696 130.014 14.7465 129.911 14.8442C129.837 14.9156 129.731 14.9265 129.636 14.9311C128.413 14.9932 127.233 14.6146 126.164 14.0622C126.05 14.0032 125.929 13.9334 125.879 13.8061C125.632 13.1637 127.247 13.3065 127.477 13.3624Z" fill="white"/>
<path d="M128.534 14.8722C128.581 14.8288 128.625 14.7822 128.662 14.7341C128.855 14.4905 128.982 14.1879 128.979 13.8776C128.979 13.8683 128.978 13.859 128.978 13.8481C128.505 13.6448 128.01 13.4912 127.507 13.3702C127.345 13.665 127.272 14.0483 127.311 14.34C127.322 14.4207 127.341 14.5014 127.369 14.579C127.748 14.7108 128.137 14.8117 128.534 14.8722Z" fill="#72594C"/>
<path d="M134.118 15.1297C134.656 15.2539 135.178 15.4478 135.64 15.783C135.716 15.8388 135.794 15.9025 135.831 16.0142C135.869 16.1259 135.853 16.2997 135.772 16.4037C135.713 16.4781 135.635 16.4968 135.565 16.5092C134.675 16.6597 133.847 16.3757 133.114 15.9118C133.036 15.8621 132.954 15.8032 132.927 15.6821C132.793 15.0708 133.954 15.0909 134.118 15.1297Z" fill="white"/>
<path d="M134.771 16.5324C134.809 16.4859 134.843 16.4378 134.874 16.3881C135.031 16.1352 135.146 15.8279 135.167 15.5238C135.167 15.5145 135.167 15.5052 135.167 15.4959C134.838 15.3314 134.491 15.2181 134.136 15.1343C133.996 15.4354 133.917 15.8155 133.922 16.0995C133.923 16.1771 133.931 16.2547 133.945 16.3307C134.214 16.4316 134.488 16.5014 134.771 16.5324Z" fill="#72594C"/>
<path d="M134.779 1.91553C133.883 2.04587 132.971 1.99621 132.067 1.94656C131.074 1.89225 130.081 1.83639 129.09 1.78208C127.993 1.72156 126.888 1.66105 125.797 1.79294C124.706 1.92484 123.616 2.26 122.74 2.92103C121.889 3.56343 121.279 4.48048 120.842 5.45184C120.421 6.38596 120.149 7.44888 120.437 8.43265C120.521 7.62887 120.843 6.85147 121.351 6.22148C120.663 7.2456 120.442 8.5692 120.759 9.75935C120.94 8.10525 121.919 6.57993 123.283 5.62253C124.648 4.66513 126.369 4.26324 128.033 4.39514C127.292 3.66274 126.138 3.60532 125.095 3.59291C127.165 2.91172 129.413 3.21585 131.57 3.52774C130.996 3.21895 130.422 2.91016 129.848 2.60138C131.265 2.89465 132.733 2.72706 134.168 2.53931C134.874 2.44776 135.589 2.34845 136.247 2.07845C136.872 1.82242 137.528 1.36157 137.789 0.716064C136.868 1.2514 135.841 1.76191 134.779 1.91553Z" fill="#9B776A"/>
<path d="M172.205 20.497C173.047 20.9547 173.179 22.1309 173.147 23.1209C173.086 25.0047 172.807 26.8838 172.319 28.707C171.886 30.3239 171.138 32.0633 169.636 32.7104C160.789 36.5245 151.588 39.3563 142.68 43.0106C133.772 46.6648 125.037 51.2314 117.992 57.9798C121.705 49.1661 126.909 41.2339 131.981 33.2023C133.179 31.3046 134.772 31.3077 136.843 30.7801C139.143 30.1935 141.44 29.5915 143.734 28.9755C148.225 27.7682 152.702 26.5036 157.166 25.1831C159.729 24.4243 162.289 23.6469 164.843 22.8494C166.072 22.4661 167.3 22.0782 168.528 21.6856C169.113 21.5009 171.727 20.2379 172.205 20.497Z" fill="#8D939E"/>
<path d="M142.637 43.1906C151.544 39.5364 160.745 36.7046 169.592 32.8905C171.094 32.2434 171.842 30.504 172.275 28.8871C172.764 27.0639 173.042 25.1848 173.103 23.301C173.117 22.8851 173.1 22.4367 173.016 22.0224C171.01 24.5982 168.395 26.7535 165.761 28.7273C163.691 30.2774 161.57 31.7655 159.319 33.0426C157.301 34.1877 155.189 35.1575 153.08 36.1273C148.35 38.3013 143.617 40.4752 138.886 42.6491C136.314 43.8222 133.755 44.927 131.035 45.7199C128.564 46.4415 128.634 47.9838 128.338 50.2679C132.882 47.4904 137.733 45.2016 142.637 43.1906Z" fill="#80868E"/>
<path d="M80.6099 78.5645C76.9247 79.8928 73.1415 80.9355 69.3568 81.9441C50.268 87.0352 30.9722 91.3474 11.5317 94.8698C11.3201 96.2927 11.3107 97.6302 11.8756 98.1128C12.1713 98.3657 12.4919 98.6187 12.8747 98.6947C13.27 98.7738 13.6762 98.6513 14.0606 98.5318C38.1309 91.0479 62.875 85.8404 86.9142 78.2775C86.9126 78.3706 86.9111 78.4621 86.908 78.5552C90.7457 75.8351 94.4542 72.8977 98.1144 69.9557C98.1549 69.7881 98.1938 69.6206 98.2343 69.4545C92.7937 73.2422 86.8504 76.313 80.6099 78.5645Z" fill="#62666B"/>
<path d="M95.3192 111.856C99.1849 112.883 101.76 88.4767 104.017 74.4184C102.722 72.3872 101.085 70.5733 99.1771 69.1007C98.8239 69.3862 98.4691 69.6702 98.1142 69.9557C96.8272 75.3246 96.1347 80.8346 96.0569 86.354C95.9651 92.9906 96.7136 99.8957 94.2019 106.042C80.0961 101.28 65.2232 96.8885 50.5137 99.2129C48.0377 99.604 45.5555 100.2 43.2881 101.241C43.1106 102.279 43.0966 103.387 43.12 104.42C60.7459 103.123 78.3672 106.867 95.3192 111.856Z" fill="#62666B"/>
<path d="M87.6097 75.2456C92.5787 77.9176 95.8079 82.1615 96.6249 88.6646C96.8086 90.1279 98.5173 90.7687 98.6216 92.2397C100.581 88.1448 101.572 83.6728 102.827 79.311C103.385 77.3683 104.003 75.4085 104.04 73.3882C104.112 69.5477 101.988 65.8547 98.9328 63.5147C95.8779 61.1748 91.9905 60.087 88.1419 59.9101C85.2846 59.7782 82.3434 60.1429 79.8036 61.4541C78.3345 62.2128 77.0397 63.2649 75.8056 64.3635C74.4828 65.5397 73.216 66.7795 72.0115 68.0736C71.0591 69.0977 70.4599 69.8782 72.0784 70.5005C73.5802 71.0792 75.3341 71.1786 76.9028 71.5246C78.6738 71.9141 80.4339 72.3687 82.1566 72.9366C84.035 73.5558 85.8682 74.3083 87.6097 75.2456Z" fill="#62666B"/>
<path d="M118.732 26.4804C119.78 33.5918 116.74 40.6381 113.313 46.9613C110.785 51.6241 108.007 56.152 104.993 60.5169C112.642 53.5001 120.098 46.2335 126.636 38.1771C128.019 36.4733 129.373 34.7215 131.065 33.3218C132.756 31.9222 134.849 30.8841 137.047 30.8841C133.657 37.9087 132.489 44.266 128.013 50.6558C122.8 58.0993 106.459 78.5243 103.367 81.7829C99.2054 80.7557 93.8053 77.525 91.2406 75.5668C90.9932 75.3775 90.7379 75.1556 90.6679 74.8515C90.6057 74.5861 90.6461 74.282 90.8033 74.0585C93.1019 70.7798 96.3326 69.3802 99.8015 65.8671C94.5398 68.9783 90.1824 71.2158 86.0708 71.5432C83.4641 71.7512 79.4646 68.2738 77.1427 67.0759C74.1936 65.5552 71.3597 63.8282 68.5273 62.1012C73.7983 60.5184 88.9483 52.0508 96.0758 42.7608C98.2561 39.9197 100.715 37.2275 102.094 33.9239C103.261 31.1293 103.431 27.745 103.943 24.7596C104.96 24.8651 118.685 26.1654 118.732 26.4804Z" fill="#8D939E"/>
<path d="M89.516 25.6999C87.6797 25.928 85.8371 26.1856 84.0739 26.7442C79.5872 28.1655 75.8896 31.4644 73.1522 35.2832C70.4148 39.1019 68.5333 43.4513 66.672 47.7619C66.4977 48.1685 66.3188 48.6122 66.4339 49.039C66.518 49.3493 66.7483 49.5991 66.9895 49.8133C68.5909 51.2284 70.877 51.5419 73.0168 51.5589C74.3863 51.5698 75.7963 51.4751 77.0366 50.8979C78.7204 50.1127 79.8829 48.5471 80.9505 47.0295C82.8958 44.2659 84.7773 41.4574 86.5934 38.6069C91.785 38.7559 96.9066 41.9043 101.905 40.4953C104.999 39.6233 107.497 36.9218 108.118 33.7765C108.695 30.8469 111.387 26.0785 108.08 25.1692C106.09 24.623 99.1305 24.7642 97.0933 24.9271C94.5613 25.1304 92.0356 25.388 89.516 25.6999Z" fill="#8D939E"/>
<path d="M119.306 24.7393C119.306 24.7393 119.267 32.3349 117.972 37.5036C115.292 48.1979 104.573 61.5378 104.573 61.5378L109.792 43.234L113.552 42.0919L109.663 38.6286L111.216 25.0528L119.306 24.7393Z" fill="#73787F"/>
<path d="M132.283 30.9849C132.283 30.9849 124.491 41.0415 120.611 45.1317C116.733 49.2236 104.991 60.5168 104.991 60.5168L122.026 50.7287L122.343 45.56L128.736 43.144L137.045 30.8856L132.283 30.9849Z" fill="#73787F"/>
<path d="M64.4499 54.9028C64.741 54.5553 65.0569 54.1906 65.4911 54.0556C65.8537 53.9439 66.2458 54.0106 66.6131 54.1037C68.5662 54.5972 70.2625 55.7811 71.8825 56.9744C72.1658 57.1838 72.4614 57.4073 72.6062 57.7285C72.8038 58.163 72.6809 58.6735 72.5035 59.1157C72.1938 59.8885 71.7285 60.5883 71.2678 61.2819C71.0764 61.5705 70.8788 61.8638 70.6049 62.0763C70.331 62.2889 69.9606 62.4084 69.6307 62.2998C69.3007 62.1927 69.0611 61.8079 69.1871 61.4851C69.2525 61.3176 69.3972 61.1965 69.5295 61.0755C70.2998 60.3772 70.8772 59.4679 71.1807 58.4749C71.2351 58.2949 71.2818 58.1071 71.2491 57.9225C71.1853 57.5671 70.8554 57.3282 70.5488 57.1357C69.4859 56.4716 68.3686 55.8913 67.2123 55.4025C66.9244 55.2799 66.61 55.162 66.3034 55.2287C65.9128 55.314 65.6514 55.6709 65.4288 56.003C65.0304 56.5942 64.6305 57.1854 64.2321 57.7781C64.0033 58.1164 63.7076 58.4919 63.2999 58.4904C62.7817 58.4888 62.4798 57.8309 62.6307 57.3375C62.7739 56.8704 63.191 56.5709 63.468 56.1861C63.7854 55.7454 64.0982 55.3218 64.4499 54.9028Z" fill="#4B4E51"/>
<path d="M74.2154 41.8034C75.3935 37.0738 77.3076 32.456 80.182 28.538C77.4134 30.234 75.0511 32.6329 73.1509 35.2832C70.4135 39.1019 68.532 43.4513 66.6708 47.7619C66.4949 48.1685 66.3175 48.6123 66.4327 49.039C66.5167 49.3493 66.747 49.5991 66.9882 49.8133C68.5896 51.2284 70.8757 51.5419 73.014 51.5589C73.3408 51.562 73.6691 51.5574 73.9975 51.5434C73.6178 50.4076 73.4264 49.2004 73.389 48.0009C73.3299 45.9108 73.7112 43.8315 74.2154 41.8034Z" fill="#80868E"/>
<path d="M118.008 30.0725C121.036 31.9315 124.641 34.6625 124.603 39.4991C128.646 37.6045 132.92 34.1054 136.963 32.2108C138.991 31.2596 141.602 30.4372 143.376 29.0732C139.011 29.4658 135.698 27.0933 131.356 26.4943C131.356 26.4943 127.26 33.9471 126.096 35.1388C125.963 33.9611 124.7 30.2696 123.993 29.3153C121.145 25.4687 119.259 24.1854 118.887 24.0489C118.644 23.9604 118.383 23.9433 118.126 23.9278C111.758 23.5321 105.245 23.1504 99.106 24.8837C100.639 24.9023 102.237 24.7549 103.744 24.8542C105.374 24.9613 107.094 25.4857 108.657 25.9388C111.94 26.8931 115.096 28.285 118.008 30.0725Z" fill="#F46A4A"/>
<path d="M122.899 38.5619C121.172 41.3193 119.755 44.4211 117.135 46.3546C119.821 45.3273 122.558 44.2691 124.777 42.4427C125.991 41.4434 127.053 40.1819 127.488 38.6737C127.597 38.2966 127.666 37.8838 127.524 37.5161C127.148 36.5354 125.899 36.7542 125.107 36.8845C124.058 37.0583 123.461 37.6651 122.899 38.5619Z" fill="#F46A4A"/>
<path d="M125.608 34.768C124.838 34.8285 124.051 35.1513 123.61 35.7844C123.168 36.4175 123.187 37.3873 123.775 37.8869C124.037 38.1088 124.373 38.219 124.695 38.3369C125.523 38.641 126.362 39.0383 127.241 38.9653C127.705 38.9281 128.157 38.7543 128.528 38.4735C129.121 38.0235 129.494 37.2585 129.368 36.5261C129.108 35.007 126.849 34.6702 125.608 34.768Z" fill="#F2CF3D"/>
<path d="M90.9462 53.0967C92.5382 51.9841 94.0914 50.8141 95.6336 49.6333C97.5882 48.1359 99.5366 46.609 101.191 44.7873C102.845 42.9657 104.205 40.8212 104.789 38.4347C104.42 38.3912 104.054 38.5123 103.703 38.6318C101.697 39.313 99.6814 39.9973 97.719 40.7948C97.1929 41.4558 96.6654 42.1169 96.1518 42.7856C89.5285 51.4146 75.9861 59.3345 69.8701 61.6853C70.5751 62.261 71.582 62.6551 72.2325 62.6629C73.602 62.6769 75.1971 61.7008 76.4203 61.1764C79.6651 59.7845 82.818 58.1816 85.8527 56.3816C87.5894 55.3482 89.2888 54.2527 90.9462 53.0967Z" fill="#80868E"/>
<path d="M88.2758 33.6834C88.3458 34.7184 88.2726 35.7611 88.0594 36.7775C89.7526 35.4275 90.8202 33.4693 91.8442 31.5638C91.4645 33.1279 90.9478 34.6594 90.3035 36.1335C94.6999 36.3197 99.0433 37.1344 103.368 37.9459C103.872 38.0406 104.434 38.1725 104.71 38.6054C102.045 40.1664 98.8566 40.8181 95.7924 40.4286C94.7497 40.2967 93.7257 40.0485 92.7032 39.8002C91.6435 39.5442 90.5852 39.2866 89.5254 39.0305C88.3925 38.7559 87.3327 38.9095 86.2573 38.7854C86.4036 38.1321 87.0105 37.4556 87.286 36.8209C87.7217 35.8123 88.0548 34.7603 88.2758 33.6834Z" fill="#80868E"/>
<path d="M65.9317 86.168L44.2424 73.8382C42.4029 72.7924 41.7618 70.4571 42.8107 68.623L50.9731 54.3474C52.022 52.5132 54.3642 51.8739 56.2036 52.9198L77.8929 65.2496C79.7324 66.2954 80.3735 68.6307 79.3246 70.4648L71.1622 84.7404C70.1133 86.5745 67.7711 87.2138 65.9317 86.168Z" fill="#4B4E51"/>
<path d="M77.9049 65.2138L76.5852 64.4644C76.7331 65.31 76.5992 66.21 76.1386 67.0138L67.9761 81.2894C66.9272 83.1235 64.5851 83.7628 62.7456 82.717L42.3745 71.1382C42.5644 72.2213 43.2195 73.2159 44.2529 73.804L65.9421 86.1338C67.7816 87.1796 70.1237 86.5403 71.1726 84.7062L79.3351 70.4306C80.3856 68.5934 79.7444 66.2597 77.9049 65.2138Z" fill="#393B3D"/>
<path d="M105.589 60.1445C106.023 59.6542 106.545 59.1111 107.2 59.1452C107.262 59.3128 107.133 59.4866 107.01 59.62C105.057 61.7319 102.842 63.5831 100.634 65.4265C100.077 65.892 99.5119 66.3497 98.835 66.6306C99.9243 65.6685 101.037 64.6894 102.109 63.6979C102.718 63.1346 103.312 62.5574 103.893 61.9646C104.296 61.555 105.451 60.7031 105.589 60.1445Z" fill="#80868E"/>
<path d="M103.191 59.8C102.479 60.0483 101.834 60.4796 101.333 61.0398C101.261 61.1189 101.191 61.2074 101.18 61.3129C101.164 61.4681 101.292 61.6108 101.44 61.6605C101.588 61.7101 101.751 61.6853 101.904 61.6481C102.521 61.496 103.083 61.1236 103.463 60.6146C103.496 60.5712 103.527 60.5262 103.536 60.4734C103.558 60.3555 103.46 60.2438 103.346 60.205C103.233 60.1662 103.11 60.1848 102.991 60.2019L103.191 59.8Z" fill="#62666B"/>
<path d="M99.8342 62.5527C99.123 62.8009 98.4772 63.2323 97.9761 63.7925C97.9045 63.8716 97.8344 63.9601 97.8236 64.0656C97.808 64.2207 97.9356 64.3635 98.0834 64.4132C98.2313 64.4628 98.3947 64.438 98.5472 64.4007C99.165 64.2487 99.7268 63.8763 100.107 63.3673C100.139 63.3239 100.17 63.2789 100.18 63.2261C100.201 63.1082 100.103 62.9965 99.9898 62.9577C99.8762 62.9189 99.7533 62.9375 99.635 62.9546L99.8342 62.5527Z" fill="#62666B"/>
<path d="M96.3513 64.871C95.6401 65.1192 94.9943 65.5506 94.4932 66.1108C94.4216 66.1899 94.3515 66.2784 94.3406 66.3839C94.3251 66.539 94.4527 66.6818 94.6005 66.7315C94.7499 66.7811 94.9118 66.7563 95.0643 66.719C95.6821 66.567 96.2439 66.1946 96.6236 65.6856C96.6548 65.6422 96.6874 65.5972 96.6968 65.5444C96.7186 65.4265 96.6205 65.3148 96.5085 65.276C96.3949 65.2372 96.2719 65.2558 96.1537 65.2729L96.3513 64.871Z" fill="#62666B"/>
<path d="M69.3348 51.5372C68.6127 52.0959 67.0051 53.6569 66.7063 54.5196C66.4075 55.3808 66.4651 56.3925 66.9896 57.1404C67.3475 57.6509 67.8875 58.0032 68.4431 58.2871C68.857 58.4982 69.299 58.6797 69.7628 58.703C70.2265 58.7263 70.7214 58.5664 71.0047 58.2002C71.1587 58.0016 71.2412 57.7595 71.3439 57.5314C71.6941 56.754 72.2854 56.1147 72.7928 55.4273C73.3001 54.7415 73.7436 53.9439 73.7156 53.092C73.7109 52.9602 73.6938 52.8236 73.6254 52.7088C73.4806 52.4683 73.1663 52.4062 72.8877 52.3674C72.0831 52.2541 70.8661 51.4131 69.3348 51.5372Z" fill="#F2D6B1"/>
<path d="M125.775 12.2249C125.495 12.2296 125.207 12.2467 124.947 12.3553C124.391 12.5896 124.09 13.1886 123.917 13.7642C123.735 14.3694 123.646 15.0335 123.872 15.6232C124.105 16.2376 124.653 16.6892 125.249 16.9685C126.559 17.583 128.198 17.434 129.374 16.593C130.164 16.0297 130.823 15.1546 131.788 15.0459C132.001 15.0227 132.232 15.0444 132.401 15.1747C132.786 15.4726 132.624 16.0669 132.653 16.5511C132.705 17.3905 133.425 18.0329 134.166 18.4348C134.644 18.694 135.238 18.8957 135.716 18.635C136.027 18.4659 136.216 18.1354 136.356 17.8111C136.605 17.2369 136.762 16.624 136.82 16.0002C136.863 15.5332 136.832 15.0149 136.513 14.672C136.186 14.3213 135.659 14.2592 135.179 14.2189C134.495 14.163 133.782 14.1103 133.144 14.3632C133.025 14.4097 132.902 14.4687 132.775 14.4532C132.678 14.4408 132.593 14.3865 132.509 14.3368C132.045 14.0653 131.516 14.0653 131.145 13.6789C130.732 13.2491 130.353 13.066 129.764 12.8611C128.487 12.4205 127.129 12.2017 125.775 12.2249Z" fill="#393B3D"/>
<path d="M120.848 12.9636C120.692 12.9403 120.533 12.9186 120.379 12.9512C120.225 12.9838 120.076 13.08 120.024 13.2274C120.01 13.2677 120.004 13.3174 120.029 13.3531C120.057 13.3934 120.113 13.4012 120.163 13.4074C120.93 13.4912 121.687 13.6805 122.404 13.9675C123.079 14.2375 123.717 14.5929 124.39 14.866C124.477 14.9017 124.575 14.9358 124.662 14.9032C124.752 14.8691 124.802 14.7775 124.838 14.6875C124.928 14.4579 125.062 13.8496 124.815 13.6572C124.651 13.53 124.092 13.5951 123.875 13.547C122.871 13.3205 121.867 13.1125 120.848 12.9636Z" fill="#393B3D"/>
</svg>
