<svg width="107" height="143" viewBox="0 0 107 143" fill="none" xmlns="http://www.w3.org/2000/svg">
<path d="M12.4664 44.1371C10.6508 57.0076 9.29561 69.9437 8.40495 82.9127C7.46442 96.6256 6.8716 110.987 0 122.885C7.41027 126.694 16.4779 123.022 24.6733 124.503C28.5794 125.208 32.2104 127.081 36.1322 127.698C43.5952 128.87 50.9584 125.395 58.4841 124.748C63.5003 124.318 68.5293 125.154 73.5597 125.355C85.2238 125.823 97.0047 122.792 107 116.751C97.5419 114.708 90.8328 106.453 85.4318 98.4089C73.6367 80.8381 64.22 61.6652 57.5208 41.5813C56.5389 38.6371 55.597 35.6344 53.9154 33.0272C52.2338 30.42 49.6787 28.2083 46.622 27.6985C44.5656 27.3558 42.4708 27.7985 40.4102 28.1126C36.7378 28.6723 33.0056 28.8222 29.2991 28.5681C26.5858 28.3825 21.8403 26.4335 19.3266 27.3844C14.2277 29.3163 13.0948 39.6894 12.4664 44.1371Z" fill="#F46A4A"/>
<path d="M36.1322 127.698C39.6093 128.245 43.0651 127.781 46.5265 127.066C46.0206 125.699 45.5618 124.32 45.1243 122.966C41.4776 111.695 37.8323 100.424 34.1856 89.1524C31.106 79.633 28.0008 69.9823 27.4379 59.9904C21.6708 80.9909 26.496 103.209 26.8964 125.019C29.9845 125.882 32.9629 127.2 36.1322 127.698Z" fill="#E06046"/>
<path d="M12.767 124.52C11.9163 119.395 12.6345 113.732 13.149 108.462C13.87 101.092 13.9954 93.6786 13.9342 86.2767C13.823 72.9236 13.0777 59.5463 14.0767 46.2104C14.3089 43.1134 14.4329 39.8808 15.325 36.9023C15.8851 35.0319 16.4437 33.8639 14.7308 33.2528C13.3599 37.0094 12.8269 41.5642 12.4635 44.1372C10.648 57.0076 9.29276 69.9437 8.4021 82.9127C7.46442 96.6256 6.8716 110.987 0 122.885C3.91747 124.899 8.29808 124.821 12.767 124.52Z" fill="#E06046"/>
<path d="M84.3259 117.165C68.8413 106.956 61.3626 88.4684 54.7632 71.1132C57.391 90.5074 64.6146 109.258 75.653 125.402C81.9859 125.431 88.3203 124.435 94.3511 122.498C90.8882 120.917 87.4781 119.244 84.3259 117.165Z" fill="#E06046"/>
<path d="M16.8256 4.72189C17.826 3.80666 19.0914 3.14557 20.4395 3.01707C21.276 2.93711 22.2137 3.1113 22.7324 3.77382C22.9619 4.06795 23.0858 4.42776 23.2056 4.78044C23.4834 5.59858 23.7627 6.48241 23.5205 7.31198C23.2754 8.15011 22.4645 8.78835 21.5938 8.82976C21.1749 8.84975 20.7616 8.74409 20.344 8.7084C18.5984 8.55847 16.9624 9.60507 15.2139 9.72501C12.0702 9.94061 16.0076 5.47008 16.8256 4.72189Z" fill="#F2D6B1"/>
<path d="M56.6146 1.89765C55.6541 0.939574 54.42 0.224232 53.0776 0.0371858C52.2454 -0.0784684 51.3005 0.0543198 50.7548 0.69256C50.5125 0.97527 50.3743 1.3308 50.2389 1.67776C49.9254 2.48306 49.6076 3.35403 49.8156 4.1936C50.0251 5.04173 50.8075 5.71424 51.6753 5.79277C52.0929 5.83132 52.5104 5.74422 52.928 5.72566C54.6793 5.65141 56.2683 6.7694 58.0097 6.96502C61.1405 7.31769 57.3998 2.68153 56.6146 1.89765Z" fill="#F2D6B1"/>
<path d="M59.6596 141.932C61.1031 142.198 62.5824 142.266 64.0445 142.138C64.0915 141.953 64.1371 141.769 64.1841 141.585C64.6929 141.912 65.3128 142.003 65.9113 142.081C68.6217 142.43 71.3507 142.64 74.0825 142.712C71.3464 141.06 68.5961 139.4 65.6405 138.188C64.6145 137.767 63.5485 137.397 62.4427 137.323C61.8442 137.283 61.22 137.337 60.6913 137.621C60.1127 137.933 59.6724 138.611 59.5327 139.248C59.4715 139.526 59.3446 141.875 59.6596 141.932Z" fill="#4B4E51"/>
<path d="M40.6823 141.528C39.2529 141.862 37.778 142.002 36.3116 141.945C36.2561 141.764 36.2005 141.582 36.1463 141.401C35.6533 141.752 35.0391 141.873 34.4448 141.979C31.7543 142.457 29.0382 142.799 26.3135 143C28.9683 141.22 31.636 139.43 34.5303 138.077C35.535 137.607 36.581 137.186 37.684 137.06C38.2796 136.992 38.9067 137.016 39.4482 137.274C40.041 137.557 40.5127 138.214 40.6837 138.844C40.7564 139.116 40.9944 141.455 40.6823 141.528Z" fill="#4B4E51"/>
<path d="M35.7491 101.891C38.213 105.49 38.6975 110.109 38.8485 114.508C39.0965 121.688 38.6704 128.894 37.5745 135.994C37.4121 137.046 37.0572 138.304 36.0512 138.559C35.2873 138.754 34.4922 138.207 34.1174 137.496C33.7426 136.785 33.6884 135.948 33.6385 135.141C32.8875 122.896 31.4112 110.681 28.8162 98.7059C28.695 98.1462 28.5981 97.478 28.9886 97.0667C29.1924 96.8526 29.4874 96.7626 29.7752 96.7198C31.4953 96.4671 33.107 97.6721 34.2057 99.0543C35.7776 101.033 36.738 103.519 36.9162 106.068L35.7491 101.891Z" fill="#F2D6B1"/>
<path d="M36.1364 90.683C36.7791 95.1521 37.4218 99.7054 36.735 104.167C36.5796 105.177 36.3288 106.231 35.6405 106.969C35.4054 107.22 35.1147 107.433 34.7812 107.497C33.8179 107.683 33.0883 106.65 32.6337 105.758C27.9723 96.6142 23.8382 86.5151 25.1422 76.2762C25.3246 74.8426 25.6295 73.3805 26.4147 72.1783C27.1985 70.9761 28.5552 70.0794 29.956 70.2207C33.4174 70.5705 33.845 74.5699 34.1528 77.2871C34.6615 81.7633 35.4952 86.2253 36.1364 90.683Z" fill="#F2D6B1"/>
<path d="M49.649 88.8825C51.1838 93.1088 52.7343 97.4166 52.9651 101.926C53.0178 102.947 52.9851 104.029 52.4621 104.9C52.2839 105.197 52.0417 105.467 51.7282 105.602C50.8233 105.994 49.8998 105.144 49.2742 104.372C42.8615 96.4542 36.7708 87.4875 35.9742 77.2014C35.8631 75.7607 35.8645 74.2658 36.3889 72.9222C36.9133 71.5772 38.0577 70.4049 39.4571 70.2379C42.9157 69.8252 44.1426 73.6389 44.9948 76.2262C46.3985 80.4882 48.1185 84.6661 49.649 88.8825Z" fill="#F2D6B1"/>
<path d="M61.9997 127.779C57.5877 114.465 53.1501 101.039 51.497 87.1091C51.2192 84.7674 50.7361 80.6482 50.2373 77.8653C49.8212 75.5437 48.4788 75.6936 46.5806 74.3C44.2236 72.5709 41.1141 72.2696 38.197 72.4353C38.0773 72.4424 37.9548 72.451 37.8336 72.4596C37.855 72.401 37.7296 72.3467 37.6056 72.4781C37.5102 72.4867 37.4133 72.4967 37.3164 72.5067C34.0701 72.0969 30.6585 72.1697 27.6916 73.5461C25.2091 74.6984 23.1414 76.8801 22.4417 79.563C21.6907 82.4444 23.6401 86.1167 24.3683 88.9153C26.2081 95.983 27.6089 103.156 28.8202 110.357C29.5128 114.475 30.1426 118.604 30.7554 122.735C31.562 128.162 32.3429 133.643 31.9624 139.118C34.8154 139.136 37.6712 138.647 40.3546 137.677C41.0856 122.329 37.8736 104.738 37.1368 88.337C40.5769 95.8088 43.3842 104.336 46.4495 111.662C50.1361 120.475 53.4066 129.536 58.4556 137.643C58.6993 138.033 58.9643 138.438 59.3719 138.651C59.7011 138.822 60.0844 138.848 60.4549 138.862C62.5711 138.942 64.6959 138.762 66.7693 138.33C64.4736 135.207 63.2195 131.459 61.9997 127.779Z" fill="#73787F"/>
<path d="M44.0351 100.104C42.0743 95.3634 40.8074 90.2317 37.7649 86.1039C37.6267 87.2019 37.5583 88.2999 37.5469 89.3979C40.7703 96.6084 43.458 104.68 46.3779 111.662C50.0645 120.475 53.335 129.536 58.384 137.643C58.6277 138.033 58.8927 138.438 59.3003 138.651C59.6295 138.822 60.0128 138.848 60.3833 138.862C62.4995 138.942 64.6243 138.762 66.6977 138.33C64.982 135.998 63.8491 133.317 62.8772 130.575C59.1065 125.629 55.7191 120.33 52.3859 115.087C49.3121 110.256 46.2254 105.394 44.0351 100.104Z" fill="#62666B"/>
<path d="M28.7474 110.356C29.4399 114.473 30.0698 118.603 30.6826 122.733C31.4892 128.161 32.2701 133.642 31.8896 139.116C33.9203 139.129 35.951 138.884 37.9218 138.392C37.5613 137.551 37.235 136.693 36.9257 135.837C32.3442 123.166 30.4802 109.657 29.7577 96.2001C29.5881 93.0503 29.5824 89.5778 31.6003 87.1576C33.3574 85.0502 36.2531 84.2749 38.9864 84.0764C41.721 83.8765 44.5027 84.1306 47.1833 83.5567C48.4516 83.2854 49.7241 82.7713 50.7915 82.026C50.5948 80.5568 50.3797 79.0833 50.1616 77.8668C49.7455 75.5451 48.4031 75.695 46.5049 74.3015C46.4679 74.2743 46.4294 74.2472 46.3909 74.2215C44.2477 73.8017 42.0659 73.4705 40.0252 72.7166C39.7573 72.6181 39.4923 72.511 39.2286 72.3996C38.8581 72.4039 38.4876 72.4167 38.1214 72.4381C38.0017 72.4453 37.8791 72.4539 37.758 72.4624C37.7793 72.4039 37.6539 72.3496 37.53 72.481C37.4345 72.4895 37.3376 72.4995 37.2407 72.5095C33.9944 72.0997 30.5828 72.1726 27.6159 73.549C25.1334 74.7013 23.0657 76.883 22.366 79.5659C21.615 82.4472 23.5645 86.1196 24.2927 88.9182C26.1352 95.9816 27.5375 103.156 28.7474 110.356Z" fill="#62666B"/>
<path d="M69.7718 16.1402C66.2705 10.9843 60.9208 7.4376 55.7094 4.02509C54.8159 4.77041 55.1665 6.19539 55.5925 7.27911C57.1957 11.3527 59.6226 14.4996 62.0138 18.1649C64.797 22.4298 66.1864 27.0845 68.9866 26.0565C73.3857 24.4416 71.499 18.6818 69.7718 16.1402Z" fill="#F2D6B1"/>
<path d="M66.1294 29.7232C68.1587 28.5196 70.2835 26.9946 70.8392 24.6987C71.1043 23.605 70.919 22.3256 70.0811 21.5746C68.7757 20.4052 66.7408 21.0234 65.1048 21.6517C59.6412 23.7477 53.8697 25.2884 49.0103 28.5552C46.7373 30.083 45.6913 32.3447 47.4342 34.782C48.5058 36.2798 49.8439 36.6839 51.5967 36.2855C56.5787 35.1518 61.7745 32.3033 66.1294 29.7232Z" fill="#F2D6B1"/>
<path d="M7.52572 32.2819C5.49644 31.0782 3.37169 29.5533 2.81592 27.2573C2.55086 26.1636 2.73612 24.8843 3.57405 24.1332C4.87939 22.9639 6.91437 23.5821 8.55033 24.2103C14.0154 26.3064 19.7854 27.847 24.6449 31.1139C26.9178 32.6417 27.9638 34.9034 26.221 37.3407C25.1493 38.8385 23.8112 39.2425 22.0584 38.8442C17.075 37.7105 11.8792 34.8634 7.52572 32.2819Z" fill="#F2D6B1"/>
<path d="M29.1038 31.2467C27.9752 31.6251 26.3107 32.1691 25.383 32.9587C23.5461 34.5236 23.8924 35.4488 23.7699 38.0089C23.5618 42.3281 24.4681 46.6316 25.3673 50.8651C26.1212 54.4104 26.8751 57.9571 27.6289 61.5024C27.8241 62.4205 28.0265 63.3572 28.4754 64.1667C29.2834 65.6231 30.7911 66.4684 32.3031 66.8454C34.3765 67.3622 36.5269 67.1366 38.6232 66.8425C39.7889 66.6783 40.9531 66.4941 42.1131 66.2885C42.6489 66.1943 43.2361 66.06 43.5539 65.5846C43.7334 65.3162 43.7975 64.9763 43.856 64.6479C44.8948 58.8895 45.9337 53.1311 46.9726 47.3726C47.6381 43.686 48.0299 37.0865 48.0841 33.3185C48.0941 32.6545 48.0812 31.9692 47.8504 31.3509C47.5497 30.5471 46.9156 29.9445 46.2472 29.4719C44.2122 28.0284 42.0319 30.4114 39.635 30.113C36.0752 29.669 32.3415 29.6433 29.1038 31.2467Z" fill="white"/>
<path d="M32.4541 31.0268C35.1688 31.8549 38.6787 31.7878 41.6314 31.7692C41.9264 28.5281 42.2214 25.2869 42.5164 22.0457C42.5463 21.723 42.5705 21.3804 42.3796 21.1062C42.2257 20.8835 41.9492 20.7378 41.6713 20.6193C39.9969 19.9068 37.9548 19.8968 36.0338 20.1653C35.3199 20.2652 34.5518 20.428 34.0744 20.8863C33.3889 21.5431 32.7092 21.0305 33.0384 21.5788C33.4531 22.2713 33.5699 22.5326 33.5443 23.3094C33.4687 25.6082 33.0882 29.1963 32.4541 31.0268Z" fill="#F2D6B1"/>
<path d="M29.2434 13.256C29.1964 14.1584 29.4529 15.0465 29.7308 15.9047C30.4119 17.9993 31.2427 20.0454 32.2161 22.0215C32.5695 22.7397 32.9471 23.4565 33.4843 24.049C34.3622 25.0185 35.6191 25.5896 36.9073 25.8052C38.1956 26.0194 39.5194 25.8995 40.802 25.651C42.2969 25.3597 43.9186 24.7586 44.567 23.3793C44.8905 22.6897 44.919 21.9001 44.9175 21.1377C44.9133 19.2244 44.7579 17.3125 44.4544 15.4235C44.1067 13.2603 43.5367 11.0657 42.2342 9.30666C40.9317 7.54757 38.7599 6.29679 36.5967 6.61092C34.6899 6.88792 33.2948 8.18296 31.9481 9.43802C30.6827 10.616 29.346 11.307 29.2434 13.256Z" fill="#F2D6B1"/>
<path d="M30.5131 18.7931C29.6039 16.9412 28.6833 15.0508 28.3955 13.009C28.1076 10.9658 28.5536 8.70837 30.0457 7.28625C32.0707 5.3544 35.3169 5.47576 37.6925 3.99938C39.1403 3.09985 40.4158 1.56065 42.1173 1.65917C43.3656 1.73056 44.4059 2.74432 44.8776 3.90515C45.3493 5.06597 45.3607 6.35673 45.335 7.61037C45.2951 9.55935 45.3578 11.8125 43.9983 13.206C43.8188 12.3179 42.7728 11.5355 41.9078 11.267C41.0442 10.9986 40.1151 11.0571 39.2159 11.1471C37.3647 11.3327 35.4238 11.6868 34.0045 12.8933C32.5851 14.0999 31.9524 16.4129 33.1209 17.865C32.635 17.5652 31.9524 17.6323 31.5334 18.0192C31.113 18.4062 30.9919 19.0816 31.2498 19.5913C31.5377 20.161 32.8174 20.7935 33.3888 21.2304L34.1812 23.5778C34.0201 23.8476 33.7921 24.1047 33.5997 24.3288C32.8943 23.5207 32.558 23.0823 32.149 22.12C31.6645 20.9891 31.0546 19.8968 30.5131 18.7931Z" fill="#72594C"/>
<path d="M34.4478 23.6321C34.5447 23.6806 36.7065 24.9914 38.5761 25.3312C41.791 25.9166 42.4836 25.167 42.4836 25.167L41.8081 28.7694C41.8081 28.7694 40.1038 28.5681 37.9919 27.0118C35.8799 25.4554 34.4478 23.6321 34.4478 23.6321Z" fill="#CEB699"/>
<path d="M42.4837 19.7626C41.6058 19.8726 40.7294 19.9825 39.8516 20.0925C39.7034 20.111 39.511 20.1053 39.464 19.9783C39.4112 19.8355 39.6036 19.7184 39.7632 19.6698C40.044 19.587 40.3347 19.5313 40.6282 19.5056C40.8078 19.4899 41.003 19.4799 41.1398 19.37C41.3165 19.2286 41.3208 18.9845 41.3094 18.7717C41.2111 16.9241 40.9902 15.0894 40.8591 13.246C41.2467 13.3217 41.5274 15.8104 41.6329 16.2673C41.6984 16.5643 42.4024 19.7726 42.4837 19.7626Z" fill="#CEB699"/>
<path d="M36.6639 13.1118C36.3945 13.1147 36.1238 13.1161 35.8559 13.1561C35.5951 13.1946 35.34 13.2689 35.1006 13.3774C35.0493 13.4002 34.9894 13.4516 35.0165 13.5002C35.0308 13.5259 35.0607 13.5345 35.0892 13.5402C35.3642 13.6058 35.6393 13.673 35.9143 13.7386C36.2563 13.8214 36.5997 13.9043 36.9503 13.9528C37.7626 14.067 38.5905 13.9942 39.4014 13.8686C39.6094 13.8357 39.8246 13.7972 39.9899 13.6672C40.1624 13.5316 40.3006 13.1818 40.0484 13.0833C39.913 13.0304 39.6437 13.0861 39.4969 13.0875C39.3016 13.089 39.1064 13.0904 38.9112 13.0933C38.1602 13.099 37.412 13.1061 36.6639 13.1118Z" fill="#72594C"/>
<path d="M43.5893 12.4921C43.7631 12.4565 43.9384 12.4193 44.108 12.4208C44.2733 12.4222 44.4343 12.4579 44.5839 12.5278C44.6153 12.5435 44.6523 12.5835 44.631 12.6349C44.621 12.6606 44.5996 12.6749 44.5825 12.6849C44.4015 12.7877 44.2206 12.8919 44.0396 12.9947C43.8144 13.1232 43.5878 13.2532 43.3598 13.3488C42.8283 13.5744 42.2982 13.623 41.7823 13.6158C41.6498 13.6144 41.513 13.6059 41.4132 13.5031C41.3092 13.396 41.2393 13.0761 41.4089 12.9448C41.4987 12.8748 41.6697 12.8905 41.7652 12.8705C41.8906 12.8448 42.0174 12.8177 42.1428 12.792C42.6245 12.692 43.1076 12.5921 43.5893 12.4921Z" fill="#72594C"/>
<path d="M32.149 18.5462C31.9396 18.6575 31.807 18.9088 31.8469 19.143C31.8754 19.3058 31.9766 19.4486 32.102 19.5556C32.2274 19.6627 32.3742 19.7398 32.521 19.8169C32.8288 19.9768 33.1366 20.1382 33.4444 20.2981C33.3418 20.2453 33.2335 19.7955 33.1879 19.6827C33.0981 19.4614 33.0126 19.2372 32.9357 19.0102C32.873 18.8246 32.8673 18.6304 32.7005 18.5276C32.5481 18.4348 32.2972 18.4662 32.149 18.5462Z" fill="#CEB699"/>
<path d="M36.8817 15.4991C37.533 15.412 38.1942 15.3835 38.8426 15.4863C38.9495 15.5034 39.0621 15.5263 39.149 15.6005C39.2359 15.6748 39.2872 15.8147 39.2359 15.9218C39.1989 16.0003 39.1205 16.0417 39.0464 16.0745C38.1101 16.4943 37.0713 16.5571 36.068 16.4472C35.9611 16.4358 35.8457 16.4172 35.7688 16.333C35.3783 15.9061 36.6836 15.5263 36.8817 15.4991Z" fill="white"/>
<path d="M38.1671 16.3644C38.1899 16.3159 38.2099 16.2673 38.2256 16.2173C38.3025 15.9675 38.3096 15.6905 38.2127 15.4477C38.2099 15.4406 38.2056 15.4335 38.2028 15.4263C37.771 15.4106 37.3378 15.4406 36.9074 15.4977C36.8703 15.779 36.9302 16.1017 37.0485 16.3187C37.0813 16.3787 37.1212 16.4358 37.1653 16.4901C37.5031 16.4758 37.8394 16.4372 38.1671 16.3644Z" fill="#72594C"/>
<path d="M42.6091 14.8697C43.068 14.804 43.5354 14.7969 43.9971 14.9196C44.0741 14.9396 44.1539 14.9668 44.218 15.0424C44.2822 15.1181 44.3221 15.2595 44.2893 15.3666C44.2651 15.4437 44.2109 15.4822 44.1596 15.5122C43.5098 15.9006 42.7759 15.9291 42.0619 15.7878C41.985 15.7721 41.9037 15.7506 41.8453 15.665C41.5575 15.2252 42.4709 14.8897 42.6091 14.8697Z" fill="white"/>
<path d="M43.5483 15.7718C43.5625 15.7247 43.5754 15.6762 43.5853 15.6276C43.6309 15.3806 43.6281 15.1051 43.5511 14.8595C43.5483 14.8523 43.5454 14.8452 43.5426 14.8366C43.2362 14.8066 42.9298 14.8238 42.6277 14.8666C42.6106 15.145 42.6633 15.4691 42.7545 15.689C42.7788 15.749 42.8101 15.809 42.8429 15.8632C43.0809 15.8618 43.3174 15.8347 43.5483 15.7718Z" fill="#72594C"/>
<path d="M39.1063 4.28923C38.4451 4.66475 37.7183 4.90177 36.9958 5.13736C36.2034 5.3958 35.4111 5.65424 34.6188 5.91268C33.7424 6.19824 32.8603 6.48666 32.048 6.92215C31.2343 7.35764 30.4861 7.95162 30.0016 8.73692C29.5314 9.50081 29.3333 10.4061 29.2877 11.3013C29.2449 12.1637 29.3547 13.0804 29.8776 13.7657C29.6995 13.1089 29.7138 12.4007 29.919 11.7511C29.6938 12.7648 29.9232 13.8714 30.5332 14.7095C30.1712 13.356 30.4719 11.8596 31.2471 10.693C32.0223 9.52651 33.245 8.68695 34.586 8.2843C33.7851 7.93448 32.8646 8.24004 32.0451 8.54845C33.4559 7.38477 35.3057 6.93929 37.087 6.52807C36.544 6.45954 36.0011 6.39243 35.4596 6.32389C36.6566 6.124 37.7525 5.5443 38.817 4.96174C39.3414 4.67475 39.8687 4.37919 40.3019 3.96654C40.7123 3.57532 41.0857 3.01418 41.0928 2.42877C40.5356 3.13269 39.8872 3.84518 39.1063 4.28923Z" fill="#9B776A"/>
<path d="M34.1142 42.932C35.7145 49.8356 37.3163 56.7548 38.1556 63.7926C40.0752 51.9545 41.9947 40.1178 43.9142 28.2796C46.3226 28.3467 48.7395 28.0626 51.068 27.4401C50.7288 35.7015 53.0246 33.0386 52.9833 41.3057C52.959 46.2646 51.1535 62.202 51.4171 67.1537C51.5995 70.6034 51.3658 74.0016 51.8276 77.4241C51.8974 77.9438 51.9701 78.4778 51.8546 78.9904C51.705 79.6515 51.2547 80.2098 50.7374 80.6467C48.4388 82.5957 45.0799 82.4215 42.0816 82.1431C41.3206 82.0717 40.5297 81.9917 39.8785 81.5919C38.7883 80.9237 38.3765 79.5601 38.1143 78.3065C37.6811 76.2347 37.4231 74.1258 37.3419 72.0098C37.1623 73.3748 36.9828 74.7384 36.8032 76.1034C36.5182 78.2694 36.0565 80.7224 34.2025 81.8732C33.0824 82.5686 31.6887 82.6157 30.3705 82.5957C27.2312 82.5486 24.0975 82.2402 21.0094 81.6748C20.465 72.3939 18.9445 50.7908 19.3977 41.9468C19.8508 33.1043 23.7711 38.0074 21.8559 28.9778C22.0482 29.6803 26.6569 29.9816 27.3423 30.0287C28.0135 30.0744 29.1992 29.8502 29.7478 30.2229C30.1696 30.5099 30.6028 31.8863 30.8308 32.3618C32.4369 35.7001 33.2805 39.341 34.1142 42.932Z" fill="#8D939E"/>
<path d="M63.0986 21.6274C59.5331 16.9184 56.7229 11.6369 54.8077 6.04551C55.9677 5.49152 57.1291 4.93752 58.2891 4.38209C58.4701 4.29642 58.6653 4.2079 58.8619 4.24359C59.0458 4.27643 59.194 4.4135 59.3279 4.54344C64.9555 9.95777 70.3322 15.8947 73.3946 23.0838C73.4759 23.2737 73.5571 23.475 73.5371 23.6806C73.5172 23.8891 73.3975 24.0719 73.2806 24.2446C67.2113 33.1871 57.9513 39.4753 48.3237 44.367C48.5916 39.9479 48.7712 35.1718 46.3201 31.4866C45.8869 30.8355 44.2637 29.0393 45.1088 28.4896C45.2427 28.4025 45.6403 28.5353 45.8113 28.4953C46.1662 28.4125 46.444 28.2083 46.7604 28.0298C47.4601 27.6357 48.1555 27.2374 48.8652 26.8633C51.7324 25.3512 54.7279 24.0847 57.8088 23.0781C59.5488 22.5098 61.313 22.0244 63.0986 21.6274Z" fill="#8D939E"/>
<path d="M10.886 24.5887C14.3289 19.7898 17.0038 14.4369 18.7751 8.79837C17.6009 8.27436 16.4266 7.75034 15.2524 7.2249C15.07 7.14351 14.8719 7.05927 14.6752 7.10068C14.4914 7.13923 14.3489 7.27916 14.2164 7.41195C8.72991 12.9705 3.50567 19.043 0.629911 26.3093C0.554384 26.502 0.477431 26.7034 0.503082 26.909C0.528733 27.116 0.652712 27.2959 0.773842 27.4658C7.07114 36.2498 16.4879 42.2981 26.2367 46.94C25.8548 42.5294 25.5541 37.759 27.9097 34.0124C28.3258 33.3499 29.9033 31.5137 29.044 30.984C28.9072 30.8997 28.5139 31.0425 28.3415 31.0083C27.9852 30.9354 27.7002 30.737 27.381 30.5671C26.6713 30.1915 25.9659 29.8103 25.2463 29.4548C22.3406 28.017 19.3138 26.8276 16.2086 25.9009C14.4586 25.3798 12.6801 24.94 10.886 24.5887Z" fill="#8D939E"/>
<path d="M31.1971 28.1397C31.1971 28.1397 33.9318 36.0699 35.1089 44.3656C36.286 52.6613 38.3993 64.3252 38.3993 64.3252L28.2344 44.03L31.3838 41.3186L26.6255 38.9884L23.043 27.837L31.1971 28.1397Z" fill="#73787F"/>
<path d="M43.812 27.4401C43.812 27.4401 41.8212 35.7372 40.9177 44.0657C40.0142 52.3957 38.2856 64.1225 38.2856 64.1225L47.7765 43.5032L44.5402 40.8974L49.2186 38.4115L51.4175 25.3312L43.812 27.4401Z" fill="#73787F"/>
<path d="M19.643 43.516C20.015 43.169 20.4068 42.8449 20.8187 42.5479C21.5768 41.9996 22.4846 41.39 22.533 40.4547C19.7898 40.6432 17.1691 39.3796 14.7879 38.0032C11.1055 35.8743 7.62556 33.3927 4.41207 30.6041C3.01837 29.3962 1.6489 28.0869 0.528806 26.6234C0.50743 26.7176 0.49603 26.8118 0.50743 26.9075C0.533081 27.1145 0.65706 27.2944 0.77819 27.4643C5.63619 34.238 12.351 39.3853 19.643 43.516Z" fill="#80868E"/>
<path d="M5.72461 23.8505C6.9473 24.0333 8.17 24.2146 9.39269 24.3974C8.68302 25.2198 7.85079 25.9366 6.9302 26.5134C8.32105 25.948 9.6834 25.3112 11.0101 24.6087C10.9702 24.6001 10.9303 24.5915 10.8904 24.5844C14.3348 19.7855 17.0082 14.4325 18.7795 8.79403C18.1582 8.51703 17.5383 8.24004 16.917 7.96161C15.2183 14.3597 11.1769 20.1096 5.72461 23.8505Z" fill="#80868E"/>
<path d="M73.2817 24.2389C73.3986 24.0661 73.5183 23.8833 73.5382 23.6749C73.5411 23.6378 73.5411 23.6006 73.5382 23.5649C72.6704 24.7215 71.4434 25.5939 70.2407 26.4206C64.3295 30.4813 58.2446 34.2894 52.0085 37.829C51.6708 38.0203 51.296 38.263 51.2404 38.6471C51.2134 38.8342 51.2689 39.0226 51.3288 39.2025C51.658 40.1963 52.1154 41.1472 52.6812 42.0282C60.6942 37.4948 68.1344 31.8207 73.2817 24.2389Z" fill="#80868E"/>
<path d="M66.0266 22.7654C65.4808 22.3699 65.0105 21.8687 64.65 21.2976C65.1929 21.5846 65.7971 21.7559 66.4099 21.7959C62.1575 17.5481 59.2148 12.001 58.0805 6.0926C57.9821 5.58429 57.9095 5.03315 57.9764 4.52484C56.9205 5.02887 55.8631 5.53432 54.8071 6.03834C56.7039 11.5769 59.4813 16.8113 62.9997 21.4875C63.9246 22.0986 64.9321 22.5526 66.0266 22.7654Z" fill="#80868E"/>
<path d="M20.6804 75.0882C19.6601 64.5151 19.0844 53.8878 19.063 43.2647C19.0616 42.4437 22.5316 40.4533 22.5316 40.4533C22.5316 40.4533 21.7549 44.8524 21.5953 45.6763C20.9626 48.9332 20.5066 52.2258 20.2301 55.5312C19.6786 62.1078 20.0477 68.5416 20.6804 75.0882Z" fill="#80868E"/>
<path d="M51.671 60.046C51.6482 64.131 51.5556 61.0698 51.3988 65.1519C51.8449 53.4366 52.2652 48.6634 56.1043 37.5891C55.6098 39.0169 51.2335 38.4515 51.2335 38.4515C51.2335 38.4515 51.0882 44.1329 51.1865 45.505C51.537 50.3439 51.6981 55.1957 51.671 60.046Z" fill="#80868E"/>
<path d="M39.1934 21.1762C39.1934 21.1762 40.7296 21.8944 41.4977 21.7616C42.2658 21.6288 42.9883 20.6779 42.9883 20.6779C42.9883 20.6779 42.7018 22.6968 41.6487 22.9338C40.5956 23.1708 39.1934 21.1762 39.1934 21.1762Z" fill="#72594C"/>
<path d="M28.2616 30.9168C32.2988 32.9458 37.6983 34.6963 40.2121 38.4572C40.9816 37.2992 40.785 36.7367 41.7626 35.7486C43.7049 33.7839 45.6473 31.8192 47.5896 29.8545C49.7101 27.7099 51.8619 25.8352 54.4512 24.2903C52.1227 24.8257 49.7956 25.067 47.4671 25.6025C46.3484 25.8595 45.2183 26.1208 44.1809 26.6134C43.1819 27.0874 42.2898 27.7656 41.2923 28.2454C39.5395 29.0878 37.4945 29.2748 35.5992 28.8379C34.6316 28.6138 33.7082 28.2354 32.7562 27.9527C31.5378 27.59 30.2781 27.3858 29.0183 27.2202C25.5198 26.759 22.0413 26.6819 18.5186 26.6876C21.8917 27.8427 25.0766 29.3162 28.2616 30.9168Z" fill="#F46A4A"/>
<path d="M38.4153 39.9393C38.3227 42.7036 38.6533 45.5221 39.6166 48.0294C40.5814 50.5366 42.2131 52.7127 44.2951 53.8435C43.8419 52.9996 43.4116 52.1215 43.1836 51.152C42.7389 49.2587 43.1109 47.2441 43.4401 45.3165C43.7692 43.3889 44.0457 41.3243 43.4344 39.5009C43.118 38.5557 42.5793 37.7433 41.9936 37.0122C41.217 36.0442 40.0242 35.2546 39.0253 36.2983C38.307 37.0465 38.4495 38.9255 38.4153 39.9393Z" fill="#F46A4A"/>
<path d="M37.234 36.6096C37.0858 36.9194 36.9974 37.3307 37.1855 37.6119C37.2967 37.779 37.4805 37.8561 37.6544 37.9132C38.7189 38.2602 39.8532 38.1759 40.9405 37.9432C41.4706 37.8304 42.0164 37.6705 42.4326 37.2735C42.8501 36.8766 43.1009 36.1812 42.8871 35.6058C42.6435 34.9505 41.9438 34.7234 41.3281 34.6792C39.8475 34.5735 38.0177 34.9676 37.234 36.6096Z" fill="#F2CF3D"/>
<path d="M37.6627 67.6778C37.7582 67.0852 37.8793 66.4955 37.9577 65.9001C38.1458 64.4694 38.0931 62.9745 38.6603 61.6495C38.3667 66.4284 37.486 71.1874 37.7069 75.9706C37.7069 74.6741 37.258 73.4334 37.2979 72.1397C37.3435 70.6477 37.4248 69.1527 37.6627 67.6778Z" fill="#80868E"/>
<path d="M36.5638 65.2176C36.5139 65.466 36.4926 65.7816 36.7092 65.9101C36.8716 66.0072 37.0925 65.9301 37.2179 65.7873C37.3433 65.6445 37.3946 65.4546 37.4445 65.2718C37.4787 65.1405 37.5143 65.0105 37.5485 64.8792C37.6483 64.5051 37.5086 63.9839 37.0369 64.2152C36.7234 64.3723 36.6237 64.9177 36.5638 65.2176Z" fill="#62666B"/>
<path d="M35.8143 69.2812C35.7644 69.5297 35.743 69.8452 35.9597 69.9737C36.1221 70.0708 36.343 69.9937 36.4684 69.8509C36.5938 69.7081 36.6451 69.5182 36.695 69.3355C36.7292 69.2041 36.7648 69.0742 36.799 68.9428C36.8988 68.5687 36.7591 68.0476 36.2874 68.2789C35.9739 68.4345 35.8741 68.9814 35.8143 69.2812Z" fill="#62666B"/>
<path d="M35.1331 73.5105C35.0832 73.7589 35.0618 74.0744 35.2799 74.203C35.4423 74.3 35.6632 74.2229 35.7872 74.0802C35.9126 73.9374 35.9639 73.7475 36.0138 73.5647C36.048 73.4348 36.0836 73.3034 36.1178 73.1735C36.2175 72.7994 36.0779 72.2782 35.6062 72.5095C35.2941 72.6652 35.1929 73.2106 35.1331 73.5105Z" fill="#62666B"/>
</svg>
